<svg width="240" height="152" viewBox="0 0 240 152" fill="none" xmlns="http://www.w3.org/2000/svg">
<rect width="240" height="152" fill="white"/>
<path d="M196.849 106.255C196.849 104.448 196.622 102.884 196.164 101.564C195.704 100.245 195.066 99.1571 194.25 98.2965C193.432 97.436 192.475 96.7967 191.373 96.3837C190.27 95.9668 189.081 95.7613 187.794 95.7613C186.509 95.7613 185.318 95.9668 184.23 96.3837C183.141 96.7977 182.188 97.437 181.37 98.2965C180.552 99.1561 179.915 100.245 179.457 101.564C179.001 102.884 178.771 104.448 178.771 106.255C178.771 108.065 179.001 109.631 179.457 110.947C179.915 112.264 180.552 113.357 181.37 114.216C182.188 115.077 183.141 115.715 184.23 116.129C185.318 116.542 186.509 116.748 187.794 116.748C189.081 116.748 190.27 116.543 191.373 116.129C192.474 115.715 193.432 115.077 194.25 114.216C195.066 113.357 195.704 112.264 196.164 110.947C196.622 109.63 196.849 108.064 196.849 106.255ZM175.565 106.255C175.565 104.403 175.864 102.751 176.466 101.303C177.065 99.8526 177.905 98.6275 178.984 97.6247C180.062 96.6238 181.348 95.8581 182.841 95.3375C184.334 94.8138 185.986 94.553 187.795 94.553C189.602 94.553 191.258 94.8138 192.764 95.3375C194.269 95.8581 195.559 96.6238 196.638 97.6247C197.717 98.6275 198.557 99.8526 199.156 101.303C199.753 102.751 200.054 104.403 200.054 106.255C200.054 108.108 199.753 109.758 199.156 111.209C198.557 112.658 197.718 113.884 196.638 114.887C195.559 115.89 194.269 116.654 192.764 117.176C191.258 117.698 189.603 117.961 187.795 117.961C185.987 117.961 184.334 117.698 182.841 117.176C181.347 116.654 180.061 115.889 178.984 114.887C177.905 113.884 177.065 112.658 176.466 111.209C175.865 109.758 175.565 108.108 175.565 106.255Z" fill="#898053"/>
<path d="M92.3496 95.3484L94.211 95.461C94.8206 95.4946 95.444 95.5124 96.0763 95.5124C96.7066 95.5124 97.3291 95.4818 97.9407 95.4294C98.5473 95.3731 99.1717 95.3484 99.8021 95.3484C100.718 95.3484 101.587 95.4343 102.417 95.6072C103.245 95.7821 103.969 96.0716 104.591 96.4747C105.212 96.8788 105.7 97.4074 106.063 98.0604C106.423 98.7155 106.602 99.5316 106.602 100.512C106.602 101.559 106.366 102.455 105.9 103.209C105.432 103.962 104.859 104.589 104.181 105.089C103.507 105.59 102.776 105.971 101.994 106.233C101.207 106.493 100.51 106.669 99.9018 106.756L100.979 108.128L102.516 110.073L104.283 112.28L106.046 114.505C106.612 115.225 107.142 115.883 107.632 116.483C108.121 117.079 108.536 117.559 108.864 117.907H104.997C104.667 117.405 104.175 116.689 103.513 115.76C102.849 114.836 102.118 113.845 101.322 112.79C100.525 111.73 99.7032 110.69 98.8546 109.666C98.0039 108.641 97.2313 107.771 96.5328 107.051H95.2899V109.435C95.2899 110.853 95.3165 112.265 95.3709 113.668C95.4272 115.076 95.4894 116.492 95.5566 117.907H92.3486V95.3484H92.3496ZM95.2908 105.677C95.5971 105.742 95.9291 105.786 96.2887 105.808C96.6484 105.829 97.0465 105.842 97.4812 105.842C98.157 105.842 98.8595 105.764 99.5896 105.612C100.32 105.459 100.99 105.192 101.601 104.808C102.21 104.428 102.716 103.916 103.12 103.273C103.524 102.63 103.725 101.818 103.725 100.838C103.725 99.989 103.566 99.2846 103.252 98.7293C102.937 98.1751 102.528 97.7334 102.027 97.4064C101.525 97.0794 100.977 96.8541 100.377 96.7365C99.7764 96.615 99.2043 96.5547 98.6579 96.5547C97.8962 96.5547 97.2629 96.5725 96.762 96.6041C96.262 96.6367 95.8372 96.6743 95.4855 96.7187L95.3561 100.283C95.3116 101.459 95.2908 102.636 95.2908 103.814V105.677Z" fill="#898053"/>
<path d="M191.112 126.514L191.11 126.104L191.088 125.835L190.802 125.84L190.436 125.864L190.04 125.893L189.671 125.933L189.697 125.761L189.709 125.592L189.697 125.419L189.671 125.249L190.148 125.267L190.581 125.278L191.061 125.286L191.686 125.29L192.303 125.286L192.783 125.278L193.2 125.267L193.651 125.249L193.625 125.419L193.612 125.592L193.625 125.761L193.651 125.933L193.304 125.893L192.919 125.864L192.558 125.84L192.271 125.835C192.262 125.887 192.257 125.979 192.257 126.104V128.451L192.262 129.053L192.271 129.59L192.291 130.095L192.32 130.596L192.032 130.567L191.685 130.558L191.334 130.567L191.048 130.596L191.075 130.095L191.093 129.59L191.108 129.053L191.11 128.451V126.514H191.112ZM189.224 129.695L189.116 130.024C189.087 130.137 189.066 130.245 189.055 130.353C188.848 130.464 188.614 130.548 188.348 130.605C188.086 130.665 187.795 130.694 187.473 130.694C187.025 130.694 186.623 130.629 186.271 130.497C185.917 130.365 185.616 130.184 185.371 129.95C185.126 129.717 184.939 129.446 184.809 129.13C184.679 128.814 184.617 128.476 184.617 128.108C184.617 127.578 184.701 127.121 184.869 126.746C185.035 126.37 185.258 126.062 185.542 125.826C185.823 125.593 186.15 125.419 186.521 125.312C186.892 125.204 187.283 125.149 187.691 125.149C187.827 125.149 187.968 125.159 188.12 125.18C188.268 125.195 188.41 125.223 188.551 125.258L188.951 125.383C189.077 125.43 189.185 125.477 189.274 125.53C189.221 125.66 189.183 125.792 189.152 125.921C189.125 126.053 189.107 126.186 189.097 126.32H188.984C188.789 126.078 188.587 125.901 188.382 125.793C188.175 125.685 187.932 125.632 187.655 125.632C187.447 125.632 187.238 125.679 187.03 125.773C186.82 125.864 186.633 126.006 186.461 126.197C186.292 126.386 186.151 126.632 186.046 126.931C185.942 127.231 185.889 127.584 185.889 127.993C185.889 128.39 185.944 128.73 186.05 129.014C186.16 129.293 186.3 129.523 186.473 129.699C186.648 129.878 186.842 130.008 187.063 130.091C187.282 130.173 187.502 130.217 187.725 130.217C187.848 130.217 187.976 130.2 188.107 130.17C188.233 130.145 188.362 130.105 188.483 130.057C188.609 130.007 188.724 129.944 188.84 129.872C188.948 129.8 189.044 129.721 189.126 129.633L189.224 129.695ZM181.076 127.396L181.072 126.791L181.062 126.254L181.048 125.752L181.022 125.25L181.713 125.275L182.402 125.29L182.948 125.286L183.419 125.278L183.785 125.267L184.02 125.249L183.996 125.393L183.988 125.574L183.996 125.771L184.02 125.925L183.527 125.892L183.01 125.863L182.555 125.839L182.271 125.834C182.248 126.116 182.236 126.397 182.234 126.675L182.229 127.519L183.14 127.496L183.988 127.458L183.958 127.657L183.95 127.804L183.964 127.931L183.988 128.122C183.4 128.077 182.813 128.054 182.229 128.054L182.226 128.549L182.223 129.046C182.223 129.38 182.229 129.702 182.246 130.011C182.54 130.011 182.836 130.003 183.131 129.989C183.424 129.974 183.722 129.947 184.021 129.911L183.997 130.067L183.989 130.26L183.997 130.453L184.021 130.594L183.506 130.57L182.666 130.556L181.901 130.558L181.437 130.569L181.172 130.579L181.022 130.593L181.048 130.092L181.062 129.588L181.072 129.05L181.076 128.448V127.396ZM177.935 131.477C178.046 131.433 178.136 131.383 178.207 131.338C178.282 131.292 178.337 131.237 178.386 131.174C178.432 131.113 178.467 131.037 178.489 130.942C178.511 130.848 178.53 130.735 178.541 130.595L178.568 130.094L178.585 129.59L178.596 129.052L178.603 128.45V127.396L178.596 126.791L178.585 126.254L178.568 125.752L178.541 125.25L178.825 125.279L179.176 125.29L179.523 125.279L179.809 125.25L179.783 125.752L179.763 126.254L179.752 126.791L179.748 127.396V128.45L179.756 129.13L179.764 129.859C179.764 130.48 179.621 130.94 179.334 131.244C179.047 131.55 178.62 131.749 178.053 131.842L177.935 131.477ZM171.71 127.922C171.71 127.54 171.778 127.182 171.921 126.846C172.064 126.512 172.263 126.216 172.523 125.961C172.781 125.71 173.093 125.511 173.46 125.366C173.829 125.222 174.236 125.148 174.684 125.148C175.093 125.148 175.475 125.207 175.833 125.319C176.192 125.434 176.505 125.605 176.765 125.834C177.03 126.058 177.238 126.349 177.391 126.695C177.541 127.042 177.617 127.45 177.617 127.914C177.617 128.297 177.546 128.657 177.399 128.997C177.252 129.334 177.046 129.629 176.786 129.882C176.528 130.136 176.214 130.334 175.854 130.48C175.491 130.624 175.093 130.694 174.66 130.694C174.252 130.694 173.869 130.642 173.511 130.531C173.151 130.424 172.84 130.258 172.572 130.032C172.308 129.81 172.094 129.523 171.942 129.176C171.787 128.824 171.71 128.407 171.71 127.922ZM176.348 127.753C176.348 127.415 176.308 127.115 176.222 126.851C176.139 126.585 176.027 126.358 175.877 126.173C175.733 125.987 175.554 125.844 175.344 125.741C175.135 125.64 174.909 125.593 174.66 125.593C174.398 125.593 174.161 125.653 173.952 125.782C173.741 125.907 173.566 126.08 173.421 126.297C173.277 126.514 173.168 126.767 173.092 127.06C173.018 127.351 172.979 127.662 172.979 127.993C172.979 128.406 173.025 128.755 173.112 129.037C173.199 129.324 173.316 129.551 173.468 129.723C173.618 129.898 173.79 130.022 173.986 130.099C174.183 130.177 174.392 130.218 174.607 130.218C174.837 130.218 175.059 130.168 175.273 130.07C175.484 129.973 175.669 129.822 175.825 129.618C175.982 129.42 176.11 129.165 176.205 128.853C176.299 128.542 176.348 128.175 176.348 127.753ZM168.612 128.133H168.545V128.451L168.547 129.053L168.561 129.59L168.58 130.095L168.605 130.596L168.319 130.567L167.969 130.558L167.622 130.567L167.335 130.596L167.362 130.095L167.38 129.59L167.39 129.053L167.397 128.451V127.397L167.39 126.792L167.38 126.255L167.362 125.753L167.335 125.251L167.622 125.28L167.969 125.291L168.447 125.272C168.625 125.256 168.844 125.251 169.108 125.251L169.613 125.269C169.755 125.278 169.871 125.294 169.973 125.314C170.073 125.334 170.164 125.365 170.238 125.396C170.313 125.431 170.383 125.469 170.449 125.516C170.605 125.629 170.73 125.771 170.819 125.939C170.91 126.107 170.95 126.306 170.95 126.539C170.95 126.915 170.851 127.223 170.645 127.462C170.437 127.696 170.14 127.865 169.755 127.964C170.003 128.404 170.266 128.844 170.551 129.279L171.402 130.598L171.054 130.569L170.707 130.56L170.354 130.569L170.003 130.598L168.612 128.133ZM169.768 126.706C169.768 126.479 169.742 126.297 169.698 126.165C169.65 126.03 169.579 125.929 169.483 125.858C169.388 125.79 169.266 125.742 169.113 125.721C168.959 125.703 168.78 125.693 168.569 125.693C168.551 126.401 168.545 127.101 168.545 127.799L168.632 127.809L168.715 127.814C169.055 127.814 169.316 127.72 169.495 127.536C169.678 127.349 169.768 127.075 169.768 126.706ZM163.015 127.396L163.008 126.791L162.998 126.254L162.979 125.752L162.951 125.25L163.238 125.279L163.588 125.29L164.149 125.271L164.72 125.25C165.084 125.25 165.372 125.279 165.577 125.332C165.785 125.385 165.947 125.465 166.063 125.568C166.229 125.704 166.353 125.854 166.429 126.017C166.507 126.183 166.546 126.38 166.546 126.614C166.546 126.91 166.495 127.16 166.396 127.373C166.3 127.583 166.16 127.755 165.982 127.887C165.805 128.019 165.594 128.117 165.352 128.177C165.108 128.24 164.842 128.272 164.556 128.272H164.161L164.173 129.432C164.179 129.821 164.196 130.205 164.221 130.595L163.936 130.566L163.589 130.557L163.239 130.566L162.952 130.595L162.98 130.094L162.999 129.59L163.009 129.052L163.016 128.45V127.396H163.015ZM165.321 126.738C165.321 126.541 165.299 126.377 165.255 126.243C165.213 126.106 165.153 126.002 165.077 125.92C165.001 125.842 164.914 125.783 164.813 125.744C164.712 125.711 164.608 125.694 164.5 125.694H164.323L164.172 125.699L164.165 126.791L164.16 127.877C164.288 127.877 164.421 127.862 164.558 127.838C164.696 127.811 164.821 127.758 164.933 127.678C165.05 127.598 165.142 127.484 165.214 127.334C165.285 127.183 165.321 126.985 165.321 126.738ZM157.054 127.396L157.049 126.791L157.038 126.254L157.017 125.752L156.991 125.25L157.277 125.279L157.625 125.29L157.974 125.279L158.261 125.25L158.235 125.752L158.214 126.254L158.203 126.791L158.198 127.396V128.45L158.203 129.295L158.214 130.012C158.509 130.012 158.805 130.004 159.099 129.99C159.393 129.975 159.691 129.948 159.987 129.912L159.966 130.068L159.958 130.261L159.966 130.454L159.987 130.595L159.474 130.571L158.633 130.557L157.87 130.559L157.406 130.57L157.144 130.58L156.992 130.594L157.018 130.093L157.039 129.589L157.05 129.051L157.055 128.449V127.396H157.054ZM154.105 125.212L154.633 126.623L155.203 128.094L155.761 129.472C155.941 129.908 156.107 130.28 156.257 130.596L155.905 130.567L155.577 130.558L155.246 130.567L154.918 130.596L154.663 129.8L154.381 129.01L153.888 128.998L153.393 128.993L152.99 128.998L152.586 129.01C152.483 129.271 152.39 129.534 152.302 129.797C152.212 130.062 152.132 130.327 152.061 130.597L151.877 130.568L151.696 130.559L151.511 130.568L151.307 130.597L151.556 130.019L151.902 129.21L152.306 128.245L152.729 127.204L153.144 126.167L153.518 125.213L153.66 125.24L153.81 125.251L153.956 125.24L154.105 125.212ZM154.205 128.55L153.869 127.621L153.518 126.706C153.383 127.012 153.255 127.316 153.136 127.621L152.789 128.55H154.205ZM148.375 128.133H148.304V128.451L148.308 129.053L148.322 129.59L148.341 130.095L148.367 130.596L148.081 130.567L147.73 130.558L147.383 130.567L147.096 130.596L147.125 130.095L147.143 129.59L147.154 129.053L147.159 128.451V127.397L147.154 126.792L147.143 126.255L147.125 125.753L147.096 125.251L147.383 125.28L147.73 125.291L148.207 125.272C148.387 125.256 148.607 125.251 148.871 125.251L149.375 125.269C149.513 125.278 149.634 125.294 149.734 125.314C149.833 125.334 149.923 125.365 149.998 125.396C150.073 125.431 150.143 125.469 150.211 125.516C150.366 125.629 150.489 125.771 150.579 125.939C150.67 126.107 150.713 126.306 150.713 126.539C150.713 126.915 150.613 127.223 150.405 127.462C150.199 127.696 149.901 127.865 149.512 127.964C149.76 128.404 150.027 128.844 150.312 129.279L151.164 130.598L150.815 130.569L150.467 130.56L150.113 130.569L149.76 130.598L148.375 128.133ZM149.533 126.706C149.533 126.479 149.508 126.297 149.461 126.165C149.416 126.03 149.345 125.929 149.248 125.858C149.153 125.79 149.027 125.742 148.875 125.721C148.722 125.703 148.542 125.693 148.332 125.693C148.316 126.401 148.306 127.101 148.306 127.799L148.396 127.809L148.48 127.814C148.821 127.814 149.081 127.72 149.261 127.536C149.438 127.349 149.533 127.075 149.533 126.706ZM143.492 130.694C143.163 130.694 142.853 130.658 142.567 130.581C142.279 130.507 142.029 130.388 141.821 130.224C141.608 130.056 141.441 129.846 141.318 129.59C141.198 129.335 141.136 129.024 141.136 128.656L141.141 128.105L141.146 127.651L141.15 127.248L141.153 126.846L141.146 125.835L141.124 125.249L141.443 125.278L141.76 125.289L142.079 125.278L142.395 125.249L142.337 125.973L142.302 126.648L142.289 127.302L142.284 127.961C142.284 128.435 142.319 128.816 142.384 129.103C142.452 129.388 142.552 129.612 142.683 129.77C142.815 129.925 142.978 130.032 143.169 130.084C143.358 130.136 143.581 130.162 143.833 130.162C144.144 130.162 144.387 130.084 144.561 129.927C144.735 129.773 144.87 129.568 144.961 129.307C145.051 129.05 145.106 128.756 145.125 128.42C145.149 128.088 145.161 127.743 145.161 127.381L145.143 126.313L145.098 125.25C145.242 125.277 145.372 125.29 145.492 125.29L145.686 125.279L145.879 125.25L145.843 125.709L145.809 126.372L145.784 127.199L145.777 128.154C145.777 129.052 145.584 129.701 145.198 130.098C144.807 130.496 144.241 130.694 143.492 130.694ZM137.73 126.514L137.726 126.104L137.707 125.835L137.418 125.84L137.056 125.864L136.659 125.893L136.286 125.933L136.316 125.761L136.327 125.592L136.316 125.419L136.286 125.249L136.764 125.267L137.197 125.278L137.68 125.286L138.303 125.29L138.92 125.286L139.403 125.278L139.82 125.267L140.269 125.249L140.242 125.419L140.23 125.592L140.242 125.761L140.269 125.933L139.922 125.893L139.54 125.864L139.18 125.84L138.892 125.835C138.883 125.887 138.878 125.979 138.878 126.104V128.451L138.883 129.053L138.893 129.59L138.914 130.095L138.942 130.596L138.652 130.567L138.306 130.558L137.956 130.567L137.669 130.596L137.697 130.095L137.718 129.59L137.729 129.053L137.733 128.451V126.514H137.73ZM133.414 127.396L133.41 126.791L133.398 126.254L133.379 125.752L133.351 125.25L133.637 125.279L133.985 125.29L134.335 125.279L134.621 125.25L134.593 125.752L134.576 126.254L134.562 126.791L134.56 127.396V128.45L134.562 129.295L134.576 130.012C134.869 130.012 135.164 130.004 135.456 129.99C135.753 129.975 136.048 129.948 136.348 129.912L136.325 130.068L136.317 130.261L136.325 130.454L136.348 130.595L135.833 130.571L134.993 130.557L134.23 130.559L133.763 130.57L133.501 130.58L133.349 130.594L133.377 130.093L133.396 129.589L133.408 129.051L133.412 128.449V127.396H133.414ZM129.748 130.694C129.416 130.694 129.107 130.658 128.82 130.581C128.535 130.507 128.286 130.388 128.073 130.224C127.864 130.056 127.697 129.846 127.574 129.59C127.453 129.335 127.393 129.024 127.393 128.656L127.395 128.105L127.4 127.651L127.403 127.248L127.408 126.846L127.4 125.835L127.376 125.249L127.695 125.278L128.011 125.289L128.329 125.278L128.645 125.249L128.59 125.973L128.556 126.648L128.542 127.302L128.537 127.961C128.537 128.435 128.571 128.816 128.639 129.103C128.705 129.388 128.805 129.612 128.938 129.77C129.067 129.925 129.23 130.032 129.422 130.084C129.611 130.136 129.835 130.162 130.087 130.162C130.396 130.162 130.641 130.084 130.815 129.927C130.99 129.773 131.125 129.568 131.214 129.307C131.305 129.05 131.361 128.756 131.38 128.42C131.4 128.088 131.41 127.743 131.41 127.381L131.397 126.313L131.348 125.25C131.493 125.277 131.627 125.29 131.742 125.29L131.938 125.279L132.131 125.25L132.097 125.709L132.059 126.372L132.037 127.199L132.031 128.154C132.031 129.052 131.836 129.701 131.449 130.098C131.064 130.496 130.495 130.694 129.748 130.694ZM126.412 129.695L126.302 130.024C126.271 130.137 126.25 130.245 126.241 130.353C126.034 130.464 125.799 130.548 125.536 130.605C125.274 130.665 124.979 130.694 124.66 130.694C124.211 130.694 123.812 130.629 123.455 130.497C123.102 130.365 122.802 130.184 122.557 129.95C122.311 129.717 122.124 129.446 121.996 129.13C121.868 128.814 121.804 128.476 121.804 128.108C121.804 127.578 121.887 127.121 122.056 126.746C122.223 126.37 122.447 126.062 122.729 125.826C123.009 125.593 123.335 125.419 123.709 125.312C124.079 125.204 124.471 125.149 124.88 125.149C125.015 125.149 125.153 125.159 125.304 125.18C125.455 125.195 125.599 125.223 125.739 125.258L126.136 125.383C126.264 125.43 126.37 125.477 126.458 125.53C126.408 125.66 126.366 125.792 126.34 125.921C126.308 126.053 126.29 126.186 126.281 126.32H126.171C125.975 126.078 125.774 125.901 125.566 125.793C125.362 125.685 125.12 125.632 124.839 125.632C124.633 125.632 124.423 125.679 124.217 125.773C124.005 125.864 123.817 126.006 123.647 126.197C123.477 126.386 123.337 126.632 123.233 126.931C123.127 127.231 123.075 127.584 123.075 127.993C123.075 128.39 123.127 128.73 123.237 129.014C123.346 129.293 123.486 129.523 123.658 129.699C123.83 129.878 124.027 130.008 124.245 130.091C124.467 130.173 124.687 130.217 124.908 130.217C125.034 130.217 125.16 130.2 125.29 130.17C125.418 130.145 125.544 130.105 125.669 130.057C125.793 130.007 125.909 129.944 126.022 129.872C126.132 129.8 126.226 129.721 126.312 129.633L126.412 129.695ZM119.671 127.396L119.666 126.791L119.654 126.254L119.633 125.752L119.607 125.25L119.893 125.279L120.243 125.29L120.593 125.279L120.879 125.25L120.853 125.752L120.834 126.254L120.82 126.791L120.818 127.396V128.45L120.82 129.052L120.834 129.59L120.853 130.094L120.879 130.595L120.593 130.566L120.243 130.557L119.893 130.566L119.607 130.595L119.633 130.094L119.654 129.59L119.666 129.052L119.671 128.45V127.396ZM116.125 128.133H116.057V128.451L116.059 129.053L116.071 129.59L116.091 130.095L116.118 130.596L115.831 130.567L115.483 130.558L115.134 130.567L114.848 130.596L114.874 130.095L114.895 129.59L114.905 129.053L114.91 128.451V127.397L114.905 126.792L114.895 126.255L114.874 125.753L114.848 125.251L115.134 125.28L115.483 125.291L115.96 125.272C116.136 125.256 116.36 125.251 116.621 125.251L117.126 125.269C117.264 125.278 117.386 125.294 117.487 125.314C117.587 125.334 117.673 125.365 117.749 125.396C117.823 125.431 117.897 125.469 117.963 125.516C118.117 125.629 118.238 125.771 118.329 125.939C118.419 126.107 118.467 126.306 118.467 126.539C118.467 126.915 118.363 127.223 118.154 127.462C117.947 127.696 117.652 127.865 117.264 127.964C117.514 128.404 117.778 128.844 118.064 129.279L118.914 130.598L118.566 130.569L118.218 130.56L117.868 130.569L117.515 130.598L116.125 128.133ZM117.279 126.706C117.279 126.479 117.256 126.297 117.21 126.165C117.164 126.03 117.091 125.929 116.997 125.858C116.903 125.79 116.778 125.742 116.625 125.721C116.472 125.703 116.291 125.693 116.078 125.693C116.064 126.401 116.057 127.101 116.057 127.799L116.144 127.809L116.223 127.814C116.569 127.814 116.827 127.72 117.01 127.536C117.189 127.349 117.279 127.075 117.279 126.706ZM113.302 126.407C113.137 126.173 112.929 125.985 112.683 125.844C112.435 125.702 112.133 125.632 111.776 125.632C111.533 125.632 111.296 125.681 111.065 125.782C110.832 125.883 110.623 126.034 110.441 126.236C110.256 126.436 110.11 126.687 109.994 126.989C109.881 127.292 109.825 127.646 109.825 128.055C109.825 128.363 109.865 128.65 109.952 128.915C110.038 129.178 110.161 129.406 110.322 129.6C110.48 129.793 110.676 129.944 110.911 130.053C111.141 130.163 111.407 130.217 111.708 130.217L111.931 130.202L112.179 130.177L112.402 130.136L112.55 130.077L112.569 129.843L112.574 129.534C112.574 129.115 112.566 128.807 112.55 128.609L112.521 128.202L112.725 128.228L113.095 128.24L113.51 128.228L113.72 128.202L113.694 128.402L113.676 128.723L113.663 129.111L113.66 129.503V129.757L113.663 130.004L113.671 130.216L113.682 130.353C113.342 130.45 112.996 130.532 112.646 130.597C112.301 130.661 111.957 130.694 111.615 130.694C111.172 130.694 110.761 130.633 110.388 130.513C110.015 130.394 109.691 130.218 109.419 129.99C109.149 129.763 108.936 129.492 108.785 129.174C108.631 128.855 108.557 128.495 108.557 128.102C108.557 127.609 108.637 127.178 108.8 126.81C108.964 126.442 109.188 126.133 109.475 125.887C109.76 125.641 110.1 125.458 110.493 125.334C110.885 125.21 111.309 125.147 111.762 125.147C112.154 125.147 112.494 125.189 112.781 125.269C113.065 125.349 113.35 125.463 113.627 125.613L113.51 126.009L113.412 126.404H113.302V126.407ZM106.249 125.212L106.779 126.623L107.349 128.094L107.908 129.472C108.088 129.908 108.253 130.28 108.404 130.596L108.052 130.567L107.721 130.558L107.393 130.567L107.061 130.596L106.807 129.8L106.528 129.01L106.035 128.998L105.538 128.993L105.135 128.998L104.733 129.01C104.629 129.271 104.532 129.534 104.447 129.797C104.359 130.062 104.279 130.327 104.206 130.597L104.024 130.568L103.843 130.559L103.657 130.568L103.454 130.597L103.703 130.019L104.047 129.21L104.45 128.245L104.875 127.204L105.292 126.167L105.662 125.213L105.809 125.24L105.958 125.251L106.104 125.24L106.249 125.212ZM106.352 128.55L106.015 127.621L105.66 126.706C105.529 127.012 105.4 127.316 105.284 127.621L104.933 128.55H106.352ZM98.3677 127.396L98.3657 126.791L98.3539 126.254L98.3351 125.752L98.3074 125.25L98.594 125.279L98.9407 125.29L99.2895 125.279L99.577 125.25L99.5503 125.752L99.5296 126.254L99.5177 126.791L99.5148 127.396V128.45L99.5177 129.295L99.5296 130.012C99.823 130.012 100.119 130.004 100.415 129.99C100.708 129.975 101.004 129.948 101.303 129.912L101.279 130.068L101.271 130.261L101.279 130.454L101.303 130.595L100.789 130.571L99.9485 130.557L99.1838 130.559L98.7224 130.57L98.4566 130.58L98.3064 130.594L98.3341 130.093L98.3529 129.589L98.3647 129.051L98.3667 128.449V127.396H98.3677ZM95.4215 125.212L95.952 126.623L96.5221 128.094L97.0774 129.472C97.2592 129.908 97.4261 130.28 97.5763 130.596L97.2226 130.567L96.8936 130.558L96.5636 130.567L96.2346 130.596L95.9797 129.8L95.7011 129.01L95.2051 128.998L94.7081 128.993L94.306 128.998L93.901 129.01C93.8002 129.271 93.7053 129.534 93.6174 129.797C93.5304 130.062 93.4504 130.327 93.3783 130.597L93.1965 130.568L93.0127 130.559L92.827 130.568L92.6264 130.597L92.8754 130.019L93.2192 129.21L93.6223 128.245L94.0462 127.204L94.4621 126.167L94.8346 125.213L94.9808 125.24L95.128 125.251L95.2753 125.24L95.4215 125.212ZM95.5213 128.55L95.1844 127.621L94.8316 126.706C94.6953 127.012 94.5698 127.316 94.4513 127.621L94.1045 128.55H95.5213ZM87.3683 126.791L87.3525 125.896L87.3288 125.249C87.4602 125.276 87.5738 125.289 87.6785 125.289C87.7813 125.289 87.8979 125.275 88.0273 125.249L89.702 127.094L91.3885 128.937V127.51L91.3845 126.764L91.3736 126.089L91.3588 125.556L91.3361 125.25C91.4636 125.277 91.5811 125.29 91.6839 125.29C91.7866 125.29 91.9032 125.276 92.0326 125.25L91.9823 126.289L91.9467 127.184L91.923 127.997L91.9121 128.795L91.9072 129.643V130.597L91.7491 130.568L91.589 130.559C91.4922 130.559 91.3904 130.571 91.2867 130.597C90.7561 129.965 90.2078 129.34 89.6437 128.714C89.0844 128.089 88.5025 127.462 87.9008 126.833L87.887 127.739V128.637L87.8919 129.426L87.8998 129.977L87.9166 130.344L87.9324 130.597L87.7487 130.568L87.5698 130.559C87.4622 130.559 87.3436 130.571 87.2152 130.597L87.2369 130.347L87.2734 129.864L87.3041 129.206L87.3377 128.433L87.3604 127.606L87.3683 126.791ZM80.4385 127.922C80.4385 127.54 80.5066 127.182 80.6489 126.846C80.7922 126.512 80.9898 126.216 81.2496 125.961C81.5075 125.71 81.8207 125.511 82.1872 125.366C82.5548 125.222 82.9608 125.148 83.4114 125.148C83.8184 125.148 84.2008 125.207 84.5604 125.319C84.92 125.434 85.2303 125.605 85.4931 125.834C85.7579 126.058 85.9643 126.349 86.1165 126.695C86.2687 127.042 86.3447 127.45 86.3447 127.914C86.3447 128.297 86.2706 128.657 86.1244 128.997C85.9782 129.334 85.7727 129.629 85.5118 129.882C85.254 130.136 84.9418 130.334 84.5802 130.48C84.2186 130.624 83.8194 130.694 83.3876 130.694C82.9786 130.694 82.5972 130.642 82.2376 130.531C81.878 130.424 81.5648 130.258 81.298 130.032C81.0342 129.81 80.8248 129.523 80.6697 129.176C80.5126 128.824 80.4385 128.407 80.4385 127.922ZM85.0751 127.753C85.0751 127.415 85.0346 127.115 84.9497 126.851C84.8677 126.585 84.7531 126.358 84.6068 126.173C84.4586 125.987 84.2788 125.844 84.0723 125.741C83.8629 125.64 83.6346 125.593 83.3867 125.593C83.1238 125.593 82.8867 125.653 82.6773 125.782C82.4668 125.907 82.292 126.08 82.1497 126.297C82.0044 126.514 81.8928 126.767 81.8207 127.06C81.7466 127.351 81.7051 127.662 81.7051 127.993C81.7051 128.406 81.7515 128.755 81.8394 129.037C81.9254 129.324 82.044 129.551 82.1932 129.723C82.3433 129.898 82.5172 130.022 82.7158 130.099C82.9104 130.177 83.1169 130.218 83.3343 130.218C83.5655 130.218 83.7888 130.168 84.0002 130.07C84.2116 129.973 84.3954 129.822 84.5535 129.618C84.7096 129.42 84.84 129.165 84.9319 128.853C85.0267 128.542 85.0751 128.175 85.0751 127.753ZM78.3034 127.396L78.3004 126.791L78.2896 126.254L78.2698 125.752L78.2402 125.25L78.5287 125.279L78.8764 125.29L79.2252 125.279L79.5117 125.25L79.485 125.752L79.4682 126.254L79.4534 126.791L79.4515 127.396V128.45L79.4534 129.052L79.4682 129.59L79.485 130.094L79.5117 130.595L79.2252 130.566L78.8764 130.557L78.5287 130.566L78.2402 130.595L78.2698 130.094L78.2896 129.59L78.3004 129.052L78.3034 128.45V127.396ZM74.8731 126.514L74.8691 126.104L74.8493 125.835L74.5618 125.84L74.2012 125.864L73.804 125.893L73.4316 125.933L73.4612 125.761L73.4721 125.592L73.4612 125.419L73.4316 125.249L73.9078 125.267L74.3415 125.278L74.8217 125.286L75.4461 125.29L76.0656 125.286L76.5477 125.278L76.9647 125.267L77.4122 125.249L77.3875 125.419L77.3757 125.592L77.3875 125.761L77.4122 125.933L77.0654 125.893L76.6811 125.864L76.3215 125.84L76.034 125.835C76.0251 125.887 76.0191 125.979 76.0191 126.104V128.451L76.0231 129.053L76.034 129.59L76.0557 130.095L76.0824 130.596L75.7959 130.567L75.4471 130.558L75.0983 130.567L74.8108 130.596L74.8405 130.095L74.8592 129.59L74.8711 129.053L74.875 128.451V126.514H74.8731ZM71.3755 125.212L71.9031 126.623L72.4722 128.094L73.0295 129.472C73.2103 129.908 73.3782 130.28 73.5264 130.596L73.1747 130.567L72.8447 130.558L72.5157 130.567L72.1887 130.596L71.9308 129.8L71.6532 129.01L71.1572 128.998L70.6583 128.993L70.2591 128.998L69.855 129.01C69.7523 129.271 69.6564 129.534 69.5685 129.797C69.4815 130.062 69.4025 130.327 69.3294 130.597L69.1486 130.568L68.9628 130.559L68.7771 130.568L68.5755 130.597L68.8245 130.019L69.1683 129.21L69.5724 128.245L69.9973 127.204L70.4112 126.167L70.7847 125.213L70.929 125.24L71.0772 125.251L71.2244 125.24L71.3755 125.212ZM71.4743 128.55L71.1374 127.621L70.7867 126.706C70.6513 127.012 70.5239 127.316 70.4053 127.621L70.0566 128.55H71.4743ZM63.3223 126.791L63.3075 125.896L63.2838 125.249C63.4142 125.276 63.5288 125.289 63.6336 125.289C63.7373 125.289 63.8509 125.275 63.9813 125.249L65.654 127.094L67.3415 128.937V127.51L67.3376 126.764L67.3267 126.089L67.3099 125.556L67.2882 125.25C67.4166 125.277 67.5342 125.29 67.6369 125.29C67.7397 125.29 67.8553 125.276 67.9847 125.25L67.9353 126.289L67.8978 127.184L67.877 127.997L67.8662 128.795L67.8622 129.643V130.597L67.7041 130.568L67.5441 130.559C67.4443 130.559 67.3435 130.571 67.2398 130.597C66.7082 129.965 66.1638 129.34 65.5987 128.714C65.0375 128.089 64.4566 127.462 63.8569 126.833L63.843 127.739V128.637L63.845 129.426L63.8578 129.977L63.8717 130.344L63.8885 130.597L63.7027 130.568L63.5259 130.559C63.4172 130.559 63.2977 130.571 63.1692 130.597L63.1919 130.347L63.2285 129.864L63.2611 129.206L63.2907 128.433L63.3154 127.606L63.3223 126.791ZM59.7389 128.133H59.6697V128.451L59.6737 129.053L59.6845 129.59L59.7053 130.095L59.73 130.596L59.4445 130.567L59.0967 130.558L58.7489 130.567L58.4604 130.596L58.49 130.095L58.5098 129.59L58.5207 129.053L58.5246 128.451V127.397L58.5207 126.792L58.5098 126.255L58.49 125.753L58.4604 125.251L58.7489 125.28L59.0967 125.291L59.5739 125.272C59.7517 125.256 59.9691 125.251 60.2368 125.251L60.7387 125.269C60.88 125.278 60.9976 125.294 61.0984 125.314C61.1981 125.334 61.2871 125.365 61.3622 125.396C61.4333 125.431 61.5074 125.469 61.5736 125.516C61.7297 125.629 61.8512 125.771 61.9431 125.939C62.035 126.107 62.0765 126.306 62.0765 126.539C62.0765 126.915 61.9757 127.223 61.7702 127.462C61.5627 127.696 61.2643 127.865 60.88 127.964C61.126 128.404 61.3918 128.844 61.6754 129.279L62.529 130.598L62.1802 130.569L61.8305 130.56L61.4778 130.569L61.126 130.598L59.7389 128.133ZM60.8948 126.706C60.8948 126.479 60.8682 126.297 60.8237 126.165C60.7773 126.03 60.7051 125.929 60.6093 125.858C60.5135 125.79 60.3919 125.742 60.2398 125.721C60.0837 125.703 59.9039 125.693 59.6905 125.693C59.6747 126.401 59.6687 127.101 59.6687 127.799L59.7586 127.809L59.8396 127.814C60.1805 127.814 60.4413 127.72 60.6192 127.536C60.8039 127.349 60.8948 127.075 60.8948 126.706ZM54.5637 127.396L54.5598 126.791L54.5499 126.254L54.5351 125.752L54.5094 125.25L55.198 125.275L55.8867 125.29L56.436 125.286L56.9083 125.278L57.2758 125.267L57.508 125.249L57.4852 125.393L57.4773 125.574L57.4852 125.771L57.508 125.925L57.0159 125.892L56.4963 125.863L56.0447 125.839L55.7592 125.834C55.7355 126.116 55.7246 126.397 55.7217 126.675L55.7187 127.519L56.6267 127.496L57.4783 127.458L57.4447 127.657L57.4368 127.804L57.4477 127.931L57.4773 128.122C56.8865 128.077 56.3006 128.054 55.7177 128.054L55.7138 128.549L55.7098 129.046C55.7098 129.38 55.7177 129.702 55.7306 130.011C56.027 130.011 56.3224 130.003 56.6158 129.989C56.9112 129.974 57.2066 129.947 57.507 129.911L57.4843 130.067L57.4764 130.26L57.4843 130.453L57.507 130.594L56.9922 130.57L56.1495 130.556L55.3877 130.558L54.9243 130.569L54.6596 130.579L54.5084 130.593L54.5341 130.092L54.5489 129.588L54.5588 129.05L54.5627 128.448V127.396H54.5637ZM51.2401 126.514L51.2352 126.104L51.2174 125.835L50.9299 125.84L50.5663 125.864L50.1721 125.893L49.7996 125.933L49.8263 125.761L49.8391 125.592L49.8263 125.419L49.7996 125.249L50.2768 125.267L50.7095 125.278L51.1907 125.286L51.8131 125.29L52.4346 125.286L52.9167 125.278L53.3347 125.267L53.7802 125.249L53.7546 125.419L53.7437 125.592L53.7546 125.761L53.7802 125.933L53.4325 125.893L53.0491 125.864L52.6895 125.84L52.4049 125.835C52.3941 125.887 52.3872 125.979 52.3872 126.104V128.451L52.3901 129.053L52.404 129.59L52.4237 130.095L52.4494 130.596L52.1639 130.567L51.8131 130.558L51.4673 130.567L51.1779 130.596L51.2055 130.095L51.2263 129.59L51.2361 129.053L51.2411 128.451V126.514H51.2401ZM44.3656 126.791L44.3518 125.896L44.329 125.249C44.4565 125.276 44.5731 125.289 44.6758 125.289C44.7796 125.289 44.8952 125.275 45.0256 125.249L46.6973 127.094L48.3877 128.937V127.51L48.3828 126.764L48.3719 126.089L48.3541 125.556L48.3304 125.25C48.4618 125.277 48.5784 125.29 48.6792 125.29C48.7839 125.29 48.8995 125.276 49.029 125.25L48.9776 126.289L48.945 127.184L48.9193 127.997L48.9084 128.795L48.9045 129.643V130.597L48.7444 130.568L48.5863 130.559C48.4865 130.559 48.3868 130.571 48.286 130.597C47.7534 129.965 47.2051 129.34 46.6429 128.714C46.0778 128.089 45.4998 127.462 44.9001 126.833L44.8863 127.739V128.637L44.8902 129.426L44.9011 129.977L44.9169 130.344L44.9327 130.597L44.746 130.568L44.5681 130.559C44.4575 130.559 44.3419 130.571 44.2115 130.597L44.2362 130.347L44.2688 129.864L44.3053 129.206L44.336 128.433L44.3597 127.606L44.3656 126.791ZM41.7474 127.396L41.7425 126.791L41.7316 126.254L41.7118 125.752L41.6832 125.25L41.9697 125.279L42.3185 125.29L42.6662 125.279L42.9537 125.25L42.9271 125.752L42.9063 126.254L42.8945 126.791L42.8915 127.396V128.45L42.8945 129.052L42.9063 129.59L42.9271 130.094L42.9537 130.595L42.6662 130.566L42.3185 130.557L41.9697 130.566L41.6832 130.595L41.7118 130.094L41.7316 129.59L41.7425 129.052L41.7474 128.45V127.396ZM196.799 126.296C196.633 125.853 196.319 125.631 195.861 125.631C195.622 125.631 195.43 125.699 195.28 125.839C195.129 125.978 195.053 126.14 195.053 126.328C195.053 126.517 195.113 126.675 195.229 126.795C195.347 126.917 195.494 127.026 195.669 127.124C195.843 127.224 196.03 127.316 196.234 127.408C196.433 127.497 196.621 127.608 196.799 127.74C196.974 127.871 197.12 128.032 197.235 128.22C197.35 128.408 197.41 128.649 197.41 128.944C197.41 129.201 197.359 129.437 197.261 129.653C197.164 129.868 197.025 130.052 196.844 130.205C196.664 130.361 196.449 130.483 196.197 130.566C195.946 130.653 195.669 130.694 195.358 130.694C195.077 130.694 194.827 130.661 194.611 130.595C194.391 130.527 194.223 130.448 194.112 130.361L194.24 129.867C194.279 129.717 194.308 129.555 194.334 129.378H194.482C194.5 129.494 194.539 129.6 194.593 129.699C194.648 129.8 194.719 129.89 194.809 129.966C194.899 130.044 195.009 130.105 195.13 130.152C195.256 130.193 195.395 130.218 195.548 130.218C195.854 130.218 196.083 130.14 196.233 129.984C196.38 129.83 196.456 129.643 196.456 129.426C196.456 129.23 196.4 129.071 196.284 128.946C196.172 128.821 196.03 128.712 195.861 128.617C195.689 128.522 195.505 128.429 195.301 128.337C195.102 128.248 194.914 128.137 194.745 128.008C194.573 127.878 194.435 127.721 194.319 127.531C194.207 127.345 194.15 127.103 194.15 126.81C194.15 126.54 194.2 126.301 194.294 126.096C194.388 125.888 194.516 125.716 194.675 125.576C194.835 125.439 195.022 125.33 195.23 125.258C195.441 125.188 195.662 125.149 195.892 125.149C196.173 125.149 196.416 125.186 196.622 125.25C196.835 125.318 197.014 125.41 197.163 125.53L197.044 125.874L196.915 126.297H196.799V126.296Z" fill="#407B7C"/>
<path d="M65.0406 48.8689C80.9315 39.2705 100.852 33.5579 122.477 33.5579C174.442 33.5579 216.566 66.5353 216.566 107.211C216.566 115.359 214.877 123.2 211.756 130.526H199.408C203.908 122.688 206.398 114.077 206.398 105.04C206.398 68.6743 163.709 38.4346 117.768 38.4346C98.6859 38.4346 79.6333 41.7504 65.0702 49.1584L65.0406 48.8689ZM33.2013 130.526L32.7685 129.491L33.3524 130.526H33.2013Z" fill="#407B7C"/>
<path d="M172.347 66.8417C171.347 66.3407 170.207 65.7944 168.929 65.2105C167.653 64.6266 166.165 64.099 164.47 63.6247C162.774 63.1525 160.832 62.7672 158.638 62.4609C156.441 62.1546 153.928 62.0024 151.094 62.0024C146.153 62.0024 141.677 62.6684 137.677 64.0031C133.678 65.335 130.26 67.2803 127.426 69.8373C124.592 72.3913 122.4 75.5183 120.843 79.2114C119.288 82.9075 118.508 87.1144 118.508 91.8381C118.508 96.7267 119.26 101.033 120.759 104.756C122.258 108.476 124.399 111.589 127.178 114.09C129.956 116.588 133.329 118.479 137.305 119.756C141.273 121.034 145.732 121.675 150.679 121.675C152.291 121.675 154.081 121.546 156.054 121.297C158.028 121.048 159.999 120.715 161.97 120.298C163.946 119.881 165.805 119.452 167.555 119.006C169.306 118.562 170.765 118.116 171.929 117.674L171.928 93.3151H171.917V93.3132H155.578V99.0011H164.848V115.509C163.402 116.397 161.415 117.061 158.887 117.506C156.358 117.952 153.902 118.174 151.511 118.174C147.567 118.174 144.067 117.562 141.011 116.339C137.956 115.115 135.359 113.379 133.217 111.132C131.08 108.88 129.455 106.131 128.343 102.881C127.23 99.6324 126.676 95.9481 126.676 91.8381C126.676 87.2271 127.298 83.2395 128.551 79.8783C129.801 76.5171 131.521 73.7399 133.717 71.5445C135.911 69.3502 138.496 67.7249 141.468 66.6707C144.44 65.6146 147.649 65.085 151.093 65.085C153.205 65.085 155.193 65.3211 157.054 65.7944C158.915 66.2667 160.611 66.8762 162.137 67.6261C163.665 68.378 165.055 69.2504 166.305 70.2542C167.555 71.2541 168.597 72.252 169.429 73.2528L170.422 73.2508L172.347 66.8417Z" fill="#898053"/>
<path d="M89.2051 96.4037C88.8158 96.209 88.3712 95.9956 87.8713 95.7674C87.3743 95.5402 86.7934 95.3347 86.1324 95.1489C85.4704 94.9652 84.7126 94.815 83.856 94.6944C83.0004 94.5759 82.0203 94.5166 80.9148 94.5166C78.9862 94.5166 77.2394 94.7755 75.6794 95.2961C74.1193 95.8158 72.7855 96.5746 71.6799 97.5725C70.5744 98.5684 69.7188 99.7886 69.1111 101.23C68.5055 102.671 68.2002 104.313 68.2002 106.155C68.2002 108.063 68.4936 109.744 69.0785 111.196C69.6644 112.646 70.4983 113.862 71.5831 114.838C72.6669 115.812 73.983 116.55 75.5331 117.048C77.0823 117.547 78.8222 117.797 80.7498 117.797C81.3791 117.797 82.0786 117.746 82.8483 117.65C83.6179 117.553 84.3876 117.423 85.1563 117.259C85.9259 117.097 86.6531 116.929 87.3348 116.755C88.0185 116.583 88.5876 116.409 89.0411 116.236L89.0401 106.732H89.0351V106.731H82.6596V108.95H86.2766V115.391C85.7125 115.738 84.9379 115.998 83.9509 116.172C82.9639 116.344 82.0065 116.431 81.0738 116.431C79.5335 116.431 78.1691 116.192 76.9776 115.717C75.7851 115.24 74.7714 114.562 73.9355 113.684C73.1027 112.805 72.4684 111.733 72.0346 110.466C71.6009 109.198 71.3835 107.762 71.3835 106.157C71.3835 104.359 71.6266 102.804 72.1147 101.491C72.6037 100.18 73.2746 99.097 74.1312 98.2404C74.9878 97.3838 75.9955 96.7495 77.1554 96.3385C78.3163 95.9255 79.5671 95.72 80.9108 95.72C81.7338 95.72 82.5094 95.8119 83.2356 95.9966C83.9618 96.1814 84.6247 96.4185 85.2185 96.711C85.8153 97.0044 86.3577 97.3452 86.8447 97.7365C87.3328 98.1268 87.7389 98.516 88.0649 98.9073L88.4522 98.9053L89.2051 96.4037Z" fill="#898053"/>
<path d="M64.7943 117.908V62.2761C34.6208 62.3482 23.4327 88.466 23.4327 108.26C23.4327 116.043 25.0461 123.529 28.0279 130.527H39.8177C35.5169 123.041 33.1428 114.818 33.1428 106.191C33.1428 99.0189 34.2118 94.5442 34.2118 94.5442H58.2656V117.909H64.7943V117.908ZM58.2666 91.3332H35.2235C35.2235 91.3332 39.0184 70.8371 58.2666 67.7398V91.3332Z" fill="#898053"/>
<path d="M115.289 95.3494H112.081V117.907H115.289V95.3494Z" fill="#898053"/>
</svg>
