<svg width="54" height="54" viewBox="0 0 54 54" fill="none" xmlns="http://www.w3.org/2000/svg">
<path d="M11.7598 3.37582C11.5139 3.38326 11.2727 3.44434 11.0529 3.55479C10.8332 3.66523 10.6402 3.82238 10.4875 4.01522C10.4875 4.01522 6.75 8.49966 6.75 13.87C6.75 19.0739 10.1693 22.0876 11.8389 23.2501C8.75463 26.1179 6.75 29.9018 6.75 34.12C6.75 43.461 16.0172 50.6588 27 50.6588C37.9828 50.6588 47.25 43.461 47.25 34.12C47.25 29.9018 45.2454 26.1179 42.1611 23.2501C43.8307 22.0876 47.25 19.0739 47.25 13.87C47.25 8.49966 43.5125 4.01522 43.5125 4.01522C43.3549 3.81641 43.1545 3.65568 42.9263 3.54498C42.698 3.43428 42.4478 3.37646 42.1941 3.37582C41.9719 3.37497 41.7518 3.418 41.5463 3.50242C41.3408 3.58685 41.154 3.71101 40.9966 3.86779C40.8392 4.02457 40.7144 4.21088 40.6291 4.41604C40.5439 4.6212 40.5 4.84116 40.5 5.06332C40.5 7.14484 39.3098 8.37102 37.8962 9.28207C37.1942 9.73451 36.4906 10.0434 35.9583 10.2445C33.5653 8.09805 30.4431 6.75082 27 6.75082C23.5569 6.75082 20.4347 8.09805 18.0417 10.2445C17.5094 10.0434 16.8058 9.73451 16.1038 9.28207C14.6902 8.37102 13.5 7.14484 13.5 5.06332C13.5001 4.83721 13.4547 4.61339 13.3666 4.40515C13.2786 4.19691 13.1495 4.00849 12.9872 3.85109C12.8249 3.69369 12.6326 3.57051 12.4217 3.48886C12.2109 3.40722 11.9858 3.36878 11.7598 3.37582ZM11.4302 9.30184C12.2293 10.5199 13.2654 11.4683 14.2712 12.1165C14.7616 12.4326 15.2498 12.6948 15.7083 12.9141C14.3217 15.0333 13.5 17.547 13.5 20.2508V20.3167C12.314 19.4849 10.125 17.4838 10.125 13.87C10.125 12.2674 10.7886 10.6816 11.4302 9.30184ZM42.5698 9.30184C43.2114 10.6816 43.875 12.2674 43.875 13.87C43.875 17.4838 41.686 19.4849 40.5 20.3167V20.2508C40.5 17.547 39.6783 15.0333 38.2917 12.9141C38.7502 12.6948 39.2384 12.4326 39.7288 12.1165C40.7346 11.4683 41.7707 10.5199 42.5698 9.30184ZM27 10.1258C29.6102 10.1258 31.971 11.1503 33.7698 12.7823C33.8494 13 33.973 13.199 34.1329 13.3669C34.2928 13.5347 34.4856 13.6678 34.6992 13.7579C36.1897 15.5219 37.125 17.77 37.125 20.2508V23.5995L37.8633 24.107C38.3664 24.4486 38.8824 24.8208 39.4124 25.2408C42.2329 27.6389 43.875 30.7329 43.875 34.12C43.875 41.1814 36.5237 47.2838 27 47.2838C17.4763 47.2838 10.125 41.1814 10.125 34.12C10.125 30.7572 11.758 27.6909 14.5415 25.3001C15.0362 25.0112 15.5197 24.7383 15.9785 24.4959L16.875 24.0213V20.2508C16.875 17.77 17.8103 15.5219 19.3008 13.7579C19.5144 13.6678 19.7072 13.5347 19.8671 13.3669C20.027 13.199 20.1506 13 20.2302 12.7823C22.029 11.1503 24.3898 10.1258 27 10.1258ZM21.9375 23.6258C21.4899 23.6258 21.0607 23.8036 20.7443 24.1201C20.4278 24.4365 20.25 24.8658 20.25 25.3133C20.25 25.7609 20.4278 26.1901 20.7443 26.5066C21.0607 26.823 21.4899 27.0008 21.9375 27.0008C22.3851 27.0008 22.8143 26.823 23.1307 26.5066C23.4472 26.1901 23.625 25.7609 23.625 25.3133C23.625 24.8658 23.4472 24.4365 23.1307 24.1201C22.8143 23.8036 22.3851 23.6258 21.9375 23.6258ZM32.0625 23.6258C31.6149 23.6258 31.1857 23.8036 30.8693 24.1201C30.5528 24.4365 30.375 24.8658 30.375 25.3133C30.375 25.7609 30.5528 26.1901 30.8693 26.5066C31.1857 26.823 31.6149 27.0008 32.0625 27.0008C32.5101 27.0008 32.9393 26.823 33.2557 26.5066C33.5722 26.1901 33.75 25.7609 33.75 25.3133C33.75 24.8658 33.5722 24.4365 33.2557 24.1201C32.9393 23.8036 32.5101 23.6258 32.0625 23.6258ZM27 30.3758C23.2921 30.3758 20.25 33.4179 20.25 37.1258C20.25 40.8338 23.2921 43.8758 27 43.8758C30.7079 43.8758 33.75 40.8338 33.75 37.1258C33.75 33.4179 30.7079 30.3758 27 30.3758ZM27 33.7508C28.8839 33.7508 30.375 35.2419 30.375 37.1258C30.375 39.0098 28.8839 40.5008 27 40.5008C25.1161 40.5008 23.625 39.0098 23.625 37.1258C23.625 35.2419 25.1161 33.7508 27 33.7508Z" fill="white"/>
</svg>
