<svg width="54" height="54" fill="none" xmlns="http://www.w3.org/2000/svg"><path d="M11.76 3.376a1.688 1.688 0 00-1.272.64S6.75 8.5 6.75 13.87c0 5.204 3.42 8.218 5.089 9.38-3.084 2.868-5.089 6.652-5.089 10.87 0 9.341 9.267 16.539 20.25 16.539S47.25 43.46 47.25 34.12c0-4.218-2.005-8.002-5.089-10.87 1.67-1.162 5.089-4.176 5.089-9.38 0-5.37-3.737-9.855-3.737-9.855A1.689 1.689 0 0040.5 5.063c0 2.082-1.19 3.308-2.604 4.22a10.43 10.43 0 01-1.938.962C33.565 8.098 30.443 6.75 27 6.75c-3.443 0-6.565 1.347-8.958 3.494a10.371 10.371 0 01-1.938-.963C14.69 8.371 13.5 7.145 13.5 5.063a1.687 1.687 0 00-1.74-1.687zm-.33 5.926a9.77 9.77 0 002.841 2.815c.49.316.979.578 1.437.797-1.386 2.12-2.208 4.633-2.208 7.337v.066c-1.186-.832-3.375-2.833-3.375-6.447 0-1.603.664-3.188 1.305-4.568zm31.14 0c.641 1.38 1.305 2.965 1.305 4.568 0 3.614-2.189 5.615-3.375 6.447v-.066c0-2.704-.822-5.218-2.208-7.337.458-.22.946-.481 1.437-.797a9.77 9.77 0 002.84-2.815zM27 10.126c2.61 0 4.971 1.024 6.77 2.656a1.688 1.688 0 00.93.976c1.49 1.764 2.425 4.012 2.425 6.493v3.348l.738.508c.503.342 1.02.714 1.55 1.134 2.82 2.398 4.462 5.492 4.462 8.879 0 7.061-7.351 13.164-16.875 13.164-9.524 0-16.875-6.103-16.875-13.164 0-3.363 1.633-6.43 4.416-8.82.495-.289.979-.562 1.438-.804l.896-.475v-3.77c0-2.481.935-4.73 2.426-6.493a1.689 1.689 0 00.93-.976c1.798-1.632 4.159-2.656 6.769-2.656zm-5.063 13.5a1.687 1.687 0 100 3.374 1.687 1.687 0 000-3.374zm10.125 0a1.687 1.687 0 100 3.374 1.687 1.687 0 000-3.374zM27 30.376c-3.708 0-6.75 3.042-6.75 6.75s3.042 6.75 6.75 6.75 6.75-3.042 6.75-6.75-3.042-6.75-6.75-6.75zm0 3.375a3.35 3.35 0 013.375 3.375A3.35 3.35 0 0127 40.5a3.35 3.35 0 01-3.375-3.375A3.35 3.35 0 0127 33.75z" fill="#fff"/></svg>