<svg width="1920" height="24" fill="none" xmlns="http://www.w3.org/2000/svg"><circle cx="1911" cy="12" r="1" transform="rotate(-180 1911 12)" fill="#fff"/><circle cx="1901" cy="12" r="1" transform="rotate(-180 1901 12)" fill="#fff"/><circle cx="1891" cy="12" r="1" transform="rotate(-180 1891 12)" fill="#fff"/><circle cx="1881" cy="12" r="1" transform="rotate(-180 1881 12)" fill="#fff"/><circle cx="1871" cy="12" r="1" transform="rotate(-180 1871 12)" fill="#fff"/><circle cx="1861" cy="12" r="1" transform="rotate(-180 1861 12)" fill="#fff"/><circle cx="1851" cy="12" r="1" transform="rotate(-180 1851 12)" fill="#fff"/><circle cx="1841" cy="12" r="1" transform="rotate(-180 1841 12)" fill="#fff"/><circle cx="1831" cy="12" r="1" transform="rotate(-180 1831 12)" fill="#fff"/><circle cx="1821" cy="12" r="1" transform="rotate(-180 1821 12)" fill="#fff"/><circle cx="1811" cy="12" r="1" transform="rotate(-180 1811 12)" fill="#fff"/><circle cx="1801" cy="12" r="1" transform="rotate(-180 1801 12)" fill="#fff"/><circle cx="1791" cy="12" r="1" transform="rotate(-180 1791 12)" fill="#fff"/><circle cx="1781" cy="12" r="1" transform="rotate(-180 1781 12)" fill="#fff"/><circle cx="1771" cy="12" r="1" transform="rotate(-180 1771 12)" fill="#fff"/><circle cx="1761" cy="12" r="1" transform="rotate(-180 1761 12)" fill="#fff"/><circle cx="1751" cy="12" r="1" transform="rotate(-180 1751 12)" fill="#fff"/><circle cx="1741" cy="12" r="1" transform="rotate(-180 1741 12)" fill="#fff"/><circle cx="1731" cy="12" r="1" transform="rotate(-180 1731 12)" fill="#fff"/><circle cx="1721" cy="12" r="1" transform="rotate(-180 1721 12)" fill="#fff"/><circle cx="1711" cy="12" r="1" transform="rotate(-180 1711 12)" fill="#fff"/><circle cx="1701" cy="12" r="1" transform="rotate(-180 1701 12)" fill="#fff"/><circle cx="1691" cy="12" r="1" transform="rotate(-180 1691 12)" fill="#fff"/><circle cx="1681" cy="12" r="1" transform="rotate(-180 1681 12)" fill="#fff"/><circle cx="1671" cy="12" r="1" transform="rotate(-180 1671 12)" fill="#fff"/><circle cx="1661" cy="12" r="1" transform="rotate(-180 1661 12)" fill="#fff"/><circle cx="1651" cy="12" r="1" transform="rotate(-180 1651 12)" fill="#fff"/><circle cx="1641" cy="12" r="1" transform="rotate(-180 1641 12)" fill="#fff"/><circle cx="1631" cy="12" r="1" transform="rotate(-180 1631 12)" fill="#fff"/><circle cx="1621" cy="12" r="1" transform="rotate(-180 1621 12)" fill="#fff"/><circle cx="1611" cy="12" r="1" transform="rotate(-180 1611 12)" fill="#fff"/><circle cx="1601" cy="12" r="1" transform="rotate(-180 1601 12)" fill="#fff"/><circle cx="1591" cy="12" r="1" transform="rotate(-180 1591 12)" fill="#fff"/><circle cx="1581" cy="12" r="1" transform="rotate(-180 1581 12)" fill="#fff"/><circle cx="1571" cy="12" r="1" transform="rotate(-180 1571 12)" fill="#fff"/><circle cx="1561" cy="12" r="1" transform="rotate(-180 1561 12)" fill="#fff"/><circle cx="1551" cy="12" r="1" transform="rotate(-180 1551 12)" fill="#fff"/><circle cx="1541" cy="12" r="1" transform="rotate(-180 1541 12)" fill="#fff"/><circle cx="1531" cy="12" r="1" transform="rotate(-180 1531 12)" fill="#fff"/><circle cx="1521" cy="12" r="1" transform="rotate(-180 1521 12)" fill="#fff"/><circle cx="1511" cy="12" r="1" transform="rotate(-180 1511 12)" fill="#fff"/><circle cx="1501" cy="12" r="1" transform="rotate(-180 1501 12)" fill="#fff"/><circle cx="1491" cy="12" r="1" transform="rotate(-180 1491 12)" fill="#fff"/><circle cx="1481" cy="12" r="1" transform="rotate(-180 1481 12)" fill="#fff"/><circle cx="1471" cy="12" r="1" transform="rotate(-180 1471 12)" fill="#fff"/><circle cx="1461" cy="12" r="1" transform="rotate(-180 1461 12)" fill="#fff"/><circle cx="1451" cy="12" r="1" transform="rotate(-180 1451 12)" fill="#fff"/><circle cx="1441" cy="12" r="1" transform="rotate(-180 1441 12)" fill="#fff"/><circle cx="1431" cy="12" r="1" transform="rotate(-180 1431 12)" fill="#fff"/><circle cx="1421" cy="12" r="1" transform="rotate(-180 1421 12)" fill="#fff"/><circle cx="1411" cy="12" r="1" transform="rotate(-180 1411 12)" fill="#fff"/><circle cx="1401" cy="12" r="1" transform="rotate(-180 1401 12)" fill="#fff"/><circle cx="1391" cy="12" r="1" transform="rotate(-180 1391 12)" fill="#fff"/><circle cx="1381" cy="12" r="1" transform="rotate(-180 1381 12)" fill="#fff"/><circle cx="1371" cy="12" r="1" transform="rotate(-180 1371 12)" fill="#fff"/><circle cx="1361" cy="12" r="1" transform="rotate(-180 1361 12)" fill="#fff"/><circle cx="1351" cy="12" r="1" transform="rotate(-180 1351 12)" fill="#fff"/><circle cx="1341" cy="12" r="1" transform="rotate(-180 1341 12)" fill="#fff"/><circle cx="1331" cy="12" r="1" transform="rotate(-180 1331 12)" fill="#fff"/><circle cx="1321" cy="12" r="1" transform="rotate(-180 1321 12)" fill="#fff"/><circle cx="1311" cy="12" r="1" transform="rotate(-180 1311 12)" fill="#fff"/><circle cx="1301" cy="12" r="1" transform="rotate(-180 1301 12)" fill="#fff"/><circle cx="1291" cy="12" r="1" transform="rotate(-180 1291 12)" fill="#fff"/><circle cx="1281" cy="12" r="1" transform="rotate(-180 1281 12)" fill="#fff"/><circle cx="1271" cy="12" r="1" transform="rotate(-180 1271 12)" fill="#fff"/><circle cx="1261" cy="12" r="1" transform="rotate(-180 1261 12)" fill="#fff"/><circle cx="1251" cy="12" r="1" transform="rotate(-180 1251 12)" fill="#fff"/><circle cx="1241" cy="12" r="1" transform="rotate(-180 1241 12)" fill="#fff"/><circle cx="1231" cy="12" r="1" transform="rotate(-180 1231 12)" fill="#fff"/><circle cx="1221" cy="12" r="1" transform="rotate(-180 1221 12)" fill="#fff"/><circle cx="1211" cy="12" r="1" transform="rotate(-180 1211 12)" fill="#fff"/><circle cx="1201" cy="12" r="1" transform="rotate(-180 1201 12)" fill="#fff"/><circle cx="1191" cy="12" r="1" transform="rotate(-180 1191 12)" fill="#fff"/><circle cx="1181" cy="12" r="1" transform="rotate(-180 1181 12)" fill="#fff"/><circle cx="1171" cy="12" r="1" transform="rotate(-180 1171 12)" fill="#fff"/><circle cx="1161" cy="12" r="1" transform="rotate(-180 1161 12)" fill="#fff"/><circle cx="1151" cy="12" r="1" transform="rotate(-180 1151 12)" fill="#fff"/><circle cx="1141" cy="12" r="1" transform="rotate(-180 1141 12)" fill="#fff"/><circle cx="1131" cy="12" r="1" transform="rotate(-180 1131 12)" fill="#fff"/><circle cx="1121" cy="12" r="1" transform="rotate(-180 1121 12)" fill="#fff"/><circle cx="1111" cy="12" r="1" transform="rotate(-180 1111 12)" fill="#fff"/><circle cx="1101" cy="12" r="1" transform="rotate(-180 1101 12)" fill="#fff"/><circle cx="1091" cy="12" r="1" transform="rotate(-180 1091 12)" fill="#fff"/><circle cx="1081" cy="12" r="1" transform="rotate(-180 1081 12)" fill="#fff"/><circle cx="1071" cy="12" r="1" transform="rotate(-180 1071 12)" fill="#fff"/><circle cx="1061" cy="12" r="1" transform="rotate(-180 1061 12)" fill="#fff"/><circle cx="1051" cy="12" r="1" transform="rotate(-180 1051 12)" fill="#fff"/><circle cx="1041" cy="12" r="1" transform="rotate(-180 1041 12)" fill="#fff"/><circle cx="1031" cy="12" r="1" transform="rotate(-180 1031 12)" fill="#fff"/><circle cx="1021" cy="12" r="1" transform="rotate(-180 1021 12)" fill="#fff"/><circle cx="1011" cy="12" r="1" transform="rotate(-180 1011 12)" fill="#fff"/><circle cx="1001" cy="12" r="1" transform="rotate(-180 1001 12)" fill="#fff"/><circle cx="991" cy="12" r="1" transform="rotate(-180 991 12)" fill="#fff"/><circle cx="981" cy="12" r="1" transform="rotate(-180 981 12)" fill="#fff"/><circle cx="960" cy="12" transform="rotate(-180 960 12)" fill="#fff" r="4"/><path d="M948.5 12c0-6.35 5.149-11.5 11.5-11.5s11.5 5.15 11.5 11.5c0 6.352-5.149 11.5-11.5 11.5s-11.5-5.148-11.5-11.5z" stroke="#fff"/><circle cx="939" cy="12" r="1" transform="rotate(-180 939 12)" fill="#fff"/><circle cx="929" cy="12" r="1" transform="rotate(-180 929 12)" fill="#fff"/><circle cx="919" cy="12" r="1" transform="rotate(-180 919 12)" fill="#fff"/><circle cx="909" cy="12" r="1" transform="rotate(-180 909 12)" fill="#fff"/><circle cx="899" cy="12" r="1" transform="rotate(-180 899 12)" fill="#fff"/><circle cx="889" cy="12" r="1" transform="rotate(-180 889 12)" fill="#fff"/><circle cx="879" cy="12" r="1" transform="rotate(-180 879 12)" fill="#fff"/><circle cx="869" cy="12" r="1" transform="rotate(-180 869 12)" fill="#fff"/><circle cx="859" cy="12" r="1" transform="rotate(-180 859 12)" fill="#fff"/><circle cx="849" cy="12" r="1" transform="rotate(-180 849 12)" fill="#fff"/><circle cx="839" cy="12" r="1" transform="rotate(-180 839 12)" fill="#fff"/><circle cx="829" cy="12" r="1" transform="rotate(-180 829 12)" fill="#fff"/><circle cx="819" cy="12" r="1" transform="rotate(-180 819 12)" fill="#fff"/><circle cx="809" cy="12" r="1" transform="rotate(-180 809 12)" fill="#fff"/><circle cx="799" cy="12" r="1" transform="rotate(-180 799 12)" fill="#fff"/><circle cx="789" cy="12" r="1" transform="rotate(-180 789 12)" fill="#fff"/><circle cx="779" cy="12" r="1" transform="rotate(-180 779 12)" fill="#fff"/><circle cx="769" cy="12" r="1" transform="rotate(-180 769 12)" fill="#fff"/><circle cx="759" cy="12" r="1" transform="rotate(-180 759 12)" fill="#fff"/><circle cx="749" cy="12" r="1" transform="rotate(-180 749 12)" fill="#fff"/><circle cx="739" cy="12" r="1" transform="rotate(-180 739 12)" fill="#fff"/><circle cx="729" cy="12" r="1" transform="rotate(-180 729 12)" fill="#fff"/><circle cx="719" cy="12" r="1" transform="rotate(-180 719 12)" fill="#fff"/><circle cx="709" cy="12" r="1" transform="rotate(-180 709 12)" fill="#fff"/><circle cx="699" cy="12" r="1" transform="rotate(-180 699 12)" fill="#fff"/><circle cx="689" cy="12" r="1" transform="rotate(-180 689 12)" fill="#fff"/><circle cx="679" cy="12" r="1" transform="rotate(-180 679 12)" fill="#fff"/><circle cx="669" cy="12" r="1" transform="rotate(-180 669 12)" fill="#fff"/><circle cx="659" cy="12" r="1" transform="rotate(-180 659 12)" fill="#fff"/><circle cx="649" cy="12" r="1" transform="rotate(-180 649 12)" fill="#fff"/><circle cx="639" cy="12" r="1" transform="rotate(-180 639 12)" fill="#fff"/><circle cx="629" cy="12" r="1" transform="rotate(-180 629 12)" fill="#fff"/><circle cx="619" cy="12" r="1" transform="rotate(-180 619 12)" fill="#fff"/><circle cx="609" cy="12" r="1" transform="rotate(-180 609 12)" fill="#fff"/><circle cx="599" cy="12" r="1" transform="rotate(-180 599 12)" fill="#fff"/><circle cx="589" cy="12" r="1" transform="rotate(-180 589 12)" fill="#fff"/><circle cx="579" cy="12" r="1" transform="rotate(-180 579 12)" fill="#fff"/><circle cx="569" cy="12" r="1" transform="rotate(-180 569 12)" fill="#fff"/><circle cx="559" cy="12" r="1" transform="rotate(-180 559 12)" fill="#fff"/><circle cx="549" cy="12" r="1" transform="rotate(-180 549 12)" fill="#fff"/><circle cx="539" cy="12" r="1" transform="rotate(-180 539 12)" fill="#fff"/><circle cx="529" cy="12" r="1" transform="rotate(-180 529 12)" fill="#fff"/><circle cx="519" cy="12" r="1" transform="rotate(-180 519 12)" fill="#fff"/><circle cx="509" cy="12" r="1" transform="rotate(-180 509 12)" fill="#fff"/><circle cx="499" cy="12" r="1" transform="rotate(-180 499 12)" fill="#fff"/><circle cx="489" cy="12" r="1" transform="rotate(-180 489 12)" fill="#fff"/><circle cx="479" cy="12" r="1" transform="rotate(-180 479 12)" fill="#fff"/><circle cx="469" cy="12" r="1" transform="rotate(-180 469 12)" fill="#fff"/><circle cx="459" cy="12" r="1" transform="rotate(-180 459 12)" fill="#fff"/><circle cx="449" cy="12" r="1" transform="rotate(-180 449 12)" fill="#fff"/><circle cx="439" cy="12" r="1" transform="rotate(-180 439 12)" fill="#fff"/><circle cx="429" cy="12" r="1" transform="rotate(-180 429 12)" fill="#fff"/><circle cx="419" cy="12" r="1" transform="rotate(-180 419 12)" fill="#fff"/><circle cx="409" cy="12" r="1" transform="rotate(-180 409 12)" fill="#fff"/><circle cx="399" cy="12" r="1" transform="rotate(-180 399 12)" fill="#fff"/><circle cx="389" cy="12" r="1" transform="rotate(-180 389 12)" fill="#fff"/><circle cx="379" cy="12" r="1" transform="rotate(-180 379 12)" fill="#fff"/><circle cx="369" cy="12" r="1" transform="rotate(-180 369 12)" fill="#fff"/><circle cx="359" cy="12" r="1" transform="rotate(-180 359 12)" fill="#fff"/><circle cx="349" cy="12" r="1" transform="rotate(-180 349 12)" fill="#fff"/><circle cx="339" cy="12" r="1" transform="rotate(-180 339 12)" fill="#fff"/><circle cx="329" cy="12" r="1" transform="rotate(-180 329 12)" fill="#fff"/><circle cx="319" cy="12" r="1" transform="rotate(-180 319 12)" fill="#fff"/><circle cx="309" cy="12" r="1" transform="rotate(-180 309 12)" fill="#fff"/><circle cx="299" cy="12" r="1" transform="rotate(-180 299 12)" fill="#fff"/><circle cx="289" cy="12" r="1" transform="rotate(-180 289 12)" fill="#fff"/><circle cx="279" cy="12" r="1" transform="rotate(-180 279 12)" fill="#fff"/><circle cx="269" cy="12" r="1" transform="rotate(-180 269 12)" fill="#fff"/><circle cx="259" cy="12" r="1" transform="rotate(-180 259 12)" fill="#fff"/><circle cx="249" cy="12" r="1" transform="rotate(-180 249 12)" fill="#fff"/><circle cx="239" cy="12" r="1" transform="rotate(-180 239 12)" fill="#fff"/><circle cx="229" cy="12" r="1" transform="rotate(-180 229 12)" fill="#fff"/><circle cx="219" cy="12" r="1" transform="rotate(-180 219 12)" fill="#fff"/><circle cx="209" cy="12" r="1" transform="rotate(-180 209 12)" fill="#fff"/><circle cx="199" cy="12" r="1" transform="rotate(-180 199 12)" fill="#fff"/><circle cx="189" cy="12" r="1" transform="rotate(-180 189 12)" fill="#fff"/><circle cx="179" cy="12" r="1" transform="rotate(-180 179 12)" fill="#fff"/><circle cx="169" cy="12" r="1" transform="rotate(-180 169 12)" fill="#fff"/><circle cx="159" cy="12" r="1" transform="rotate(-180 159 12)" fill="#fff"/><circle cx="149" cy="12" r="1" transform="rotate(-180 149 12)" fill="#fff"/><circle cx="139" cy="12" r="1" transform="rotate(-180 139 12)" fill="#fff"/><circle cx="129" cy="12" r="1" transform="rotate(-180 129 12)" fill="#fff"/><circle cx="119" cy="12" r="1" transform="rotate(-180 119 12)" fill="#fff"/><circle cx="109" cy="12" r="1" transform="rotate(-180 109 12)" fill="#fff"/><circle cx="99" cy="12" r="1" transform="rotate(-180 99 12)" fill="#fff"/><circle cx="89" cy="12" r="1" transform="rotate(-180 89 12)" fill="#fff"/><circle cx="79" cy="12" r="1" transform="rotate(-180 79 12)" fill="#fff"/><circle cx="69" cy="12" r="1" transform="rotate(-180 69 12)" fill="#fff"/><circle cx="59" cy="12" r="1" transform="rotate(-180 59 12)" fill="#fff"/><circle cx="49" cy="12" r="1" transform="rotate(-180 49 12)" fill="#fff"/><circle cx="39" cy="12" r="1" transform="rotate(-180 39 12)" fill="#fff"/><circle cx="29" cy="12" r="1" transform="rotate(-180 29 12)" fill="#fff"/><circle cx="19" cy="12" r="1" transform="rotate(-180 19 12)" fill="#fff"/><circle cx="9" cy="12" r="1" transform="rotate(-180 9 12)" fill="#fff"/></svg>