<svg width="240" height="152" fill="none" xmlns="http://www.w3.org/2000/svg"><path fill="#fff" d="M0 0h240v152H0z"/><path d="M196.849 106.255c0-1.807-.227-3.371-.685-4.691-.46-1.319-1.098-2.407-1.914-3.267a7.608 7.608 0 00-2.877-1.913c-1.103-.417-2.292-.623-3.579-.623-1.285 0-2.476.206-3.564.623a7.672 7.672 0 00-2.86 1.912c-.818.86-1.455 1.949-1.913 3.268-.456 1.32-.686 2.884-.686 4.691 0 1.81.23 3.376.686 4.692.458 1.317 1.095 2.41 1.913 3.269a7.655 7.655 0 002.86 1.913c1.088.413 2.279.619 3.564.619 1.287 0 2.476-.205 3.579-.619a7.622 7.622 0 002.877-1.913c.816-.859 1.454-1.952 1.914-3.269.458-1.317.685-2.883.685-4.692zm-21.284 0c0-1.852.299-3.504.901-4.952.599-1.45 1.439-2.675 2.518-3.678 1.078-1.001 2.364-1.767 3.857-2.287 1.493-.524 3.145-.785 4.954-.785 1.807 0 3.463.26 4.969.785 1.505.52 2.795 1.286 3.874 2.287 1.079 1.002 1.919 2.228 2.518 3.678.597 1.448.898 3.1.898 4.952 0 1.853-.301 3.503-.898 4.954-.599 1.449-1.438 2.675-2.518 3.678-1.079 1.003-2.369 1.767-3.874 2.289-1.506.522-3.161.785-4.969.785-1.808 0-3.461-.263-4.954-.785-1.494-.522-2.78-1.287-3.857-2.289-1.079-1.003-1.919-2.229-2.518-3.678-.601-1.451-.901-3.101-.901-4.954zM92.35 95.348l1.861.113c.61.034 1.233.051 1.865.051.63 0 1.253-.03 1.865-.083a20.21 20.21 0 011.861-.08c.916 0 1.785.085 2.615.258.828.175 1.552.465 2.174.868a4.42 4.42 0 011.472 1.585c.36.656.539 1.472.539 2.452 0 1.047-.236 1.943-.702 2.697a6.701 6.701 0 01-1.719 1.88 7.804 7.804 0 01-2.187 1.144c-.787.26-1.484.436-2.092.523l1.077 1.372 1.537 1.945 1.767 2.207 1.763 2.225a135.6 135.6 0 001.586 1.978c.489.596.904 1.076 1.232 1.424h-3.867a73.09 73.09 0 00-1.484-2.147 159.35 159.35 0 00-2.191-2.97 84.12 84.12 0 00-2.467-3.124 45.75 45.75 0 00-2.322-2.615H95.29v2.384c0 1.418.026 2.83.08 4.233.057 1.408.12 2.824.187 4.239h-3.208V95.348zm2.94 10.329c.307.065.64.109.999.131.36.021.757.034 1.192.034.676 0 1.379-.078 2.109-.23.73-.153 1.4-.42 2.011-.804a4.762 4.762 0 001.519-1.535c.404-.643.605-1.455.605-2.435 0-.849-.159-1.553-.473-2.109a3.78 3.78 0 00-1.225-1.323 4.622 4.622 0 00-1.65-.67 8.667 8.667 0 00-1.72-.181c-.76 0-1.394.017-1.895.05-.5.032-.925.07-1.276.114l-.13 3.564a93.372 93.372 0 00-.065 3.531v1.863z" fill="#898053"/><path d="M191.112 126.514l-.002-.41-.022-.269-.286.005-.366.024-.396.029-.369.04.026-.172.012-.169-.012-.173-.026-.17.477.018.433.011.48.008.625.004.617-.004.48-.008.417-.011.451-.018-.026.17-.013.173.013.169.026.172-.347-.04-.385-.029-.361-.024-.287-.005a1.818 1.818 0 00-.014.269v2.347l.005.602.009.537.02.505.029.501-.288-.029-.347-.009-.351.009-.286.029.027-.501.018-.505.015-.537.002-.602v-1.937h.002zm-1.888 3.181l-.108.329c-.029.113-.05.221-.061.329a2.667 2.667 0 01-.707.252c-.262.06-.553.089-.875.089-.448 0-.85-.065-1.202-.197a2.597 2.597 0 01-.9-.547 2.35 2.35 0 01-.562-.82 2.649 2.649 0 01-.192-1.022c0-.53.084-.987.252-1.362.166-.376.389-.684.673-.92.281-.233.608-.407.979-.514a4.17 4.17 0 011.17-.163c.136 0 .277.01.429.031.148.015.29.043.431.078l.4.125c.126.047.234.094.323.147-.053.13-.091.262-.122.391a3.163 3.163 0 00-.055.399h-.113a1.996 1.996 0 00-.602-.527 1.552 1.552 0 00-.727-.161c-.208 0-.417.047-.625.141a1.65 1.65 0 00-.569.424c-.169.189-.31.435-.415.734-.104.3-.157.653-.157 1.062 0 .397.055.737.161 1.021.11.279.25.509.423.685.175.179.369.309.59.392.219.082.439.126.662.126.123 0 .251-.017.382-.047a2.194 2.194 0 00.733-.298c.108-.072.204-.151.286-.239l.098.062zm-8.148-2.299l-.004-.605-.01-.537-.014-.502-.026-.502.691.025.689.015.546-.004.471-.008.366-.011.235-.018-.024.144-.008.181.008.197.024.154-.493-.033-.517-.029-.455-.024-.284-.005c-.023.282-.035.563-.037.841l-.005.844.911-.023.848-.038-.03.199-.008.147.014.127.024.191a23.058 23.058 0 00-1.759-.068l-.003.495-.003.497c0 .334.006.656.023.965.294 0 .59-.008.885-.022.293-.015.591-.042.89-.078l-.024.156-.008.193.008.193.024.141-.515-.024-.84-.014-.765.002-.464.011-.265.01-.15.014.026-.501.014-.504.01-.538.004-.602v-1.052zm-3.141 4.081a1.62 1.62 0 00.272-.139.605.605 0 00.282-.396c.022-.094.041-.207.052-.347l.027-.501.017-.504.011-.538.007-.602v-1.054l-.007-.605-.011-.537-.017-.502-.027-.502.284.029.351.011.347-.011.286-.029-.026.502-.02.502-.011.537-.004.605v1.054l.008.68.008.729c0 .621-.143 1.081-.43 1.385-.287.306-.714.505-1.281.598l-.118-.365zm-6.225-3.555a2.714 2.714 0 01.813-1.961c.258-.251.57-.45.937-.595a3.337 3.337 0 011.224-.218c.409 0 .791.059 1.149.171.359.115.672.286.932.515.265.224.473.515.626.861.15.347.226.755.226 1.219a2.694 2.694 0 01-.831 1.968 2.826 2.826 0 01-.932.598 3.21 3.21 0 01-1.194.214 3.86 3.86 0 01-1.149-.163 2.57 2.57 0 01-.939-.499 2.321 2.321 0 01-.63-.856c-.155-.352-.232-.769-.232-1.254zm4.638-.169c0-.338-.04-.638-.126-.902a2.015 2.015 0 00-.345-.678 1.5 1.5 0 00-.533-.432 1.543 1.543 0 00-.684-.148c-.262 0-.499.06-.708.189a1.65 1.65 0 00-.531.515 2.5 2.5 0 00-.329.763 3.774 3.774 0 00-.113.933c0 .413.046.762.133 1.044.087.287.204.514.356.686.15.175.322.299.518.376.197.078.406.119.621.119.23 0 .452-.05.666-.148.211-.097.396-.248.552-.452a2.3 2.3 0 00.38-.765c.094-.311.143-.678.143-1.1zm-7.736.38h-.067v.318l.002.602.014.537.019.505.025.501-.286-.029-.35-.009-.347.009-.287.029.027-.501.018-.505.01-.537.007-.602v-1.054l-.007-.605-.01-.537-.018-.502-.027-.502.287.029.347.011.478-.019c.178-.016.397-.021.661-.021l.505.018c.142.009.258.025.36.045.1.02.191.051.265.082a1.231 1.231 0 01.581.543c.091.168.131.367.131.6 0 .376-.099.684-.305.923-.208.234-.505.403-.89.502.248.44.511.88.796 1.315l.851 1.319-.348-.029-.347-.009-.353.009-.351.029-1.391-2.465zm1.156-1.427c0-.227-.026-.409-.07-.541a.629.629 0 00-.215-.307.816.816 0 00-.37-.137 4.707 4.707 0 00-.544-.028 82.676 82.676 0 00-.024 2.106l.087.01.083.005c.34 0 .601-.094.78-.278.183-.187.273-.461.273-.83zm-6.753.69l-.007-.605-.01-.537-.019-.502-.028-.502.287.029.35.011.561-.019.571-.021c.364 0 .652.029.857.082.208.053.37.133.486.236.166.136.29.286.366.449.078.166.117.363.117.597 0 .296-.051.546-.15.759-.096.21-.236.382-.414.514-.177.132-.388.23-.63.29-.244.063-.51.095-.796.095h-.395l.012 1.16c.006.389.023.773.048 1.163l-.285-.029-.347-.009-.35.009-.287.029.028-.501.019-.504.01-.538.007-.602v-1.054h-.001zm2.306-.658c0-.197-.022-.361-.066-.495a.812.812 0 00-.178-.323.733.733 0 00-.264-.176 1 1 0 00-.313-.05h-.177l-.151.005-.007 1.092-.005 1.086c.128 0 .261-.015.398-.039a.95.95 0 00.375-.16.844.844 0 00.281-.344c.071-.151.107-.349.107-.596zm-8.267.658l-.005-.605-.011-.537-.021-.502-.026-.502.286.029.348.011.349-.011.287-.029-.026.502-.021.502-.011.537-.005.605v1.054l.005.845.011.717c.295 0 .591-.008.885-.022.294-.015.592-.042.888-.078l-.021.156-.008.193.008.193.021.141-.513-.024-.841-.014-.763.002-.464.011-.262.01-.152.014.026-.501.021-.504.011-.538.005-.602v-1.053h-.001zm-2.949-2.184l.528 1.411.57 1.471.558 1.378c.18.436.346.808.496 1.124l-.352-.029-.328-.009-.331.009-.328.029-.255-.796-.282-.79-.493-.012-.495-.005-.403.005-.404.012a15.781 15.781 0 00-.525 1.587l-.184-.029-.181-.009-.185.009-.204.029.249-.578.346-.809.404-.965.423-1.041.415-1.037.374-.954.142.027.15.011.146-.011.149-.028zm.1 3.338l-.336-.929-.351-.915c-.135.306-.263.61-.382.915l-.347.929h1.416zm-5.83-.417h-.071v.318l.004.602.014.537.019.505.026.501-.286-.029-.351-.009-.347.009-.287.029.029-.501.018-.505.011-.537.005-.602v-1.054l-.005-.605-.011-.537-.018-.502-.029-.502.287.029.347.011.477-.019c.18-.016.4-.021.664-.021l.504.018c.138.009.259.025.359.045.099.02.189.051.264.082.075.035.145.073.213.12.155.113.278.255.368.423.091.168.134.367.134.6 0 .376-.1.684-.308.923-.206.234-.504.403-.893.502.248.44.515.88.8 1.315l.852 1.319-.349-.029-.348-.009-.354.009-.353.029-1.385-2.465zm1.158-1.427c0-.227-.025-.409-.072-.541a.601.601 0 00-.213-.307.833.833 0 00-.373-.137 4.688 4.688 0 00-.543-.028 93.142 93.142 0 00-.026 2.106l.09.01.084.005c.341 0 .601-.094.781-.278.177-.187.272-.461.272-.83zm-6.041 3.988c-.329 0-.639-.036-.925-.113a1.99 1.99 0 01-.746-.357 1.767 1.767 0 01-.503-.634c-.12-.255-.182-.566-.182-.934l.005-.551.005-.454.004-.403.003-.402-.007-1.011-.022-.586.319.029.317.011.319-.011.316-.029-.058.724-.035.675-.013.654-.005.659c0 .474.035.855.1 1.142.068.285.168.509.299.667a.964.964 0 00.486.314c.189.052.412.078.664.078.311 0 .554-.078.728-.235.174-.154.309-.359.4-.62.09-.257.145-.551.164-.887.024-.332.036-.677.036-1.039l-.018-1.068-.045-1.063c.144.027.274.04.394.04l.194-.011.193-.029-.036.459-.034.663-.025.827-.007.955c0 .898-.193 1.547-.579 1.944-.391.398-.957.596-1.706.596zm-5.762-4.18l-.004-.41-.019-.269-.289.005-.362.024-.397.029-.373.04.03-.172.011-.169-.011-.173-.03-.17.478.018.433.011.483.008.623.004.617-.004.483-.008.417-.011.449-.018-.027.17-.012.173.012.169.027.172-.347-.04-.382-.029-.36-.024-.288-.005a1.818 1.818 0 00-.014.269v2.347l.005.602.01.537.021.505.028.501-.29-.029-.346-.009-.35.009-.287.029.028-.501.021-.505.011-.537.004-.602v-1.937h-.003zm-4.316.882l-.004-.605-.012-.537-.019-.502-.028-.502.286.029.348.011.35-.011.286-.029-.028.502-.017.502-.014.537-.002.605v1.054l.002.845.014.717c.293 0 .588-.008.88-.022.297-.015.592-.042.892-.078l-.023.156-.008.193.008.193.023.141-.515-.024-.84-.014-.763.002-.467.011-.262.01-.152.014.028-.501.019-.504.012-.538.004-.602v-1.053h.002zm-3.666 3.298a3.57 3.57 0 01-.928-.113 2.055 2.055 0 01-.747-.357 1.801 1.801 0 01-.499-.634c-.121-.255-.181-.566-.181-.934l.002-.551.005-.454.003-.403.005-.402-.008-1.011-.024-.586.319.029.316.011.318-.011.316-.029-.055.724-.034.675-.014.654-.005.659c0 .474.034.855.102 1.142.066.285.166.509.299.667a.942.942 0 00.484.314c.189.052.413.078.665.078.309 0 .554-.078.728-.235.175-.154.31-.359.399-.62.091-.257.147-.551.166-.887.02-.332.03-.677.03-1.039l-.013-1.068-.049-1.063c.145.027.279.04.394.04l.196-.011.193-.029-.034.459-.038.663-.022.827-.006.955c0 .898-.195 1.547-.582 1.944-.385.398-.954.596-1.701.596zm-3.336-.999l-.11.329a1.804 1.804 0 00-.061.329 2.69 2.69 0 01-.705.252c-.262.06-.557.089-.876.089-.449 0-.848-.065-1.205-.197a2.597 2.597 0 01-.898-.547 2.308 2.308 0 01-.561-.82 2.686 2.686 0 01-.192-1.022c0-.53.083-.987.252-1.362.167-.376.391-.684.673-.92.28-.233.606-.407.98-.514.37-.108.762-.163 1.171-.163.135 0 .273.01.424.031.151.015.295.043.435.078l.397.125c.128.047.234.094.322.147-.05.13-.092.262-.118.391-.032.132-.05.265-.059.399h-.11c-.196-.242-.397-.419-.605-.527a1.533 1.533 0 00-.727-.161c-.206 0-.416.047-.622.141-.212.091-.4.233-.57.424-.17.189-.31.435-.414.734-.106.3-.158.653-.158 1.062 0 .397.052.737.162 1.021.109.279.249.509.421.685.172.179.369.309.587.392.222.082.442.126.663.126.126 0 .252-.017.382-.047.128-.025.254-.065.379-.113.124-.05.24-.113.353-.185a1.71 1.71 0 00.29-.239l.1.062zm-6.741-2.299l-.005-.605-.012-.537-.021-.502-.026-.502.286.029.35.011.35-.011.286-.029-.026.502-.019.502-.014.537-.002.605v1.054l.002.602.014.538.019.504.026.501-.286-.029-.35-.009-.35.009-.286.029.026-.501.021-.504.012-.538.005-.602v-1.054zm-3.546.737h-.068v.318l.002.602.012.537.02.505.027.501-.287-.029-.348-.009-.349.009-.286.029.026-.501.021-.505.01-.537.005-.602v-1.054l-.005-.605-.01-.537-.021-.502-.026-.502.286.029.349.011.477-.019c.176-.016.4-.021.661-.021l.505.018c.138.009.26.025.361.045.1.02.186.051.262.082.074.035.148.073.214.12.154.113.275.255.366.423.09.168.138.367.138.6 0 .376-.104.684-.313.923-.207.234-.502.403-.89.502.25.44.514.88.8 1.315l.85 1.319-.348-.029-.348-.009-.35.009-.353.029-1.39-2.465zm1.154-1.427c0-.227-.023-.409-.069-.541a.626.626 0 00-.213-.307.82.82 0 00-.372-.137 4.725 4.725 0 00-.547-.028c-.014.708-.021 1.408-.021 2.106l.087.01.079.005c.346 0 .604-.094.787-.278.179-.187.269-.461.269-.83zm-3.977-.299a1.916 1.916 0 00-.619-.563c-.248-.142-.55-.212-.907-.212a1.798 1.798 0 00-1.335.604 2.31 2.31 0 00-.447.753 3.042 3.042 0 00-.169 1.066c0 .308.04.595.127.86.086.263.209.491.37.685.158.193.354.344.589.453.23.11.496.164.797.164l.223-.015.248-.025.223-.041.148-.059.019-.234.005-.309c0-.419-.008-.727-.024-.925l-.029-.407.204.026.37.012.415-.012.21-.026-.026.2-.018.321-.013.388-.003.392v.254l.003.247.008.212.011.137c-.34.097-.686.179-1.036.244a5.646 5.646 0 01-1.031.097c-.443 0-.854-.061-1.227-.181a2.834 2.834 0 01-.969-.523 2.404 2.404 0 01-.634-.816 2.441 2.441 0 01-.228-1.072c0-.493.08-.924.243-1.292.164-.368.388-.677.675-.923a2.846 2.846 0 011.018-.553 4.19 4.19 0 011.269-.187c.392 0 .732.042 1.019.122.284.08.569.194.846.344l-.117.396-.098.395h-.11v.003zm-7.053-1.195l.53 1.411.57 1.471.559 1.378c.18.436.345.808.496 1.124l-.352-.029-.331-.009-.328.009-.332.029-.254-.796-.279-.79-.493-.012-.497-.005-.403.005-.402.012a14.726 14.726 0 00-.527 1.587l-.182-.029-.181-.009-.186.009-.203.029.249-.578.344-.809.403-.965.425-1.041.417-1.037.37-.954.147.027.149.011.146-.011.145-.028zm.103 3.338l-.337-.929-.355-.915c-.131.306-.26.61-.376.915l-.351.929h1.419zm-7.984-1.154l-.002-.605-.012-.537-.019-.502-.028-.502.287.029.347.011.349-.011.287-.029-.027.502-.02.502-.012.537-.003.605v1.054l.003.845.012.717c.293 0 .589-.008.885-.022.293-.015.589-.042.888-.078l-.024.156-.008.193.008.193.024.141-.514-.024-.84-.014-.765.002-.462.011-.265.01-.15.014.027-.501.019-.504.012-.538.002-.602v-1.053zm-2.947-2.184l.531 1.411.57 1.471.555 1.378c.182.436.35.808.5 1.124l-.354-.029-.33-.009-.33.009-.328.029-.255-.796-.279-.79-.496-.012-.497-.005-.402.005-.405.012a14.797 14.797 0 00-.523 1.587l-.181-.029-.184-.009-.186.009-.2.029.248-.578.344-.809.403-.965.424-1.041.416-1.037.373-.954.146.027.147.011.147-.011.146-.028zm.1 3.338l-.337-.929-.352-.915c-.137.306-.262.61-.38.915l-.347.929h1.416zm-8.153-1.759l-.015-.895-.024-.647c.131.027.245.04.35.04a1.8 1.8 0 00.348-.04l1.675 1.845 1.686 1.843v-1.427l-.004-.746-.01-.675-.015-.533-.023-.306a1.7 1.7 0 00.348.04 1.8 1.8 0 00.349-.04l-.05 1.039-.036.895-.024.813-.01.798-.006.848v.954l-.158-.029-.16-.009c-.097 0-.199.012-.302.038a71.327 71.327 0 00-1.643-1.883 77.227 77.227 0 00-1.743-1.881l-.014.906v.898l.005.789.008.551.017.367.015.253-.183-.029-.18-.009c-.107 0-.225.012-.354.038l.022-.25.036-.483.031-.658.034-.773.022-.827.008-.815zm-6.93 1.131c0-.382.069-.74.21-1.076.144-.334.342-.63.602-.885a2.81 2.81 0 01.937-.595 3.323 3.323 0 011.224-.218c.407 0 .79.059 1.15.171.359.115.67.286.932.515.265.224.471.515.624.861.152.347.228.755.228 1.219a2.71 2.71 0 01-.833 1.968c-.258.254-.57.452-.932.598-.361.144-.76.214-1.192.214a3.87 3.87 0 01-1.15-.163 2.566 2.566 0 01-.94-.499 2.355 2.355 0 01-.628-.856c-.157-.352-.231-.769-.231-1.254zm4.637-.169c0-.338-.04-.638-.125-.902a2.062 2.062 0 00-.343-.678 1.575 1.575 0 00-.535-.432 1.554 1.554 0 00-.685-.148c-.263 0-.5.06-.71.189-.21.125-.385.298-.527.515a2.38 2.38 0 00-.33.763 3.768 3.768 0 00-.115.933c0 .413.046.762.134 1.044.086.287.205.514.354.686a1.3 1.3 0 00.523.376c.194.078.4.119.618.119.231 0 .455-.05.666-.148a1.48 1.48 0 00.553-.452c.157-.198.287-.453.379-.765a3.79 3.79 0 00.143-1.1zm-6.772-.357l-.003-.605-.01-.537-.02-.502-.03-.502.289.029.347.011.35-.011.286-.029-.027.502-.017.502-.015.537-.002.605v1.054l.002.602.015.538.017.504.027.501-.287-.029-.349-.009-.347.009-.289.029.03-.501.02-.504.01-.538.003-.602v-1.054zm-3.43-.882l-.004-.41-.02-.269-.287.005-.36.024-.398.029-.372.04.03-.172.01-.169-.01-.173-.03-.17.476.018.433.011.48.008.625.004.62-.004.482-.008.417-.011.447-.018-.025.17-.011.173.011.169.025.172-.347-.04-.384-.029-.36-.024-.287-.005a1.799 1.799 0 00-.015.269v2.347l.004.602.011.537.022.505.026.501-.286-.029-.349-.009-.349.009-.287.029.03-.501.018-.505.012-.537.004-.602v-1.937h-.002zm-3.498-1.302l.528 1.411.57 1.471.556 1.378c.181.436.35.808.497 1.124l-.351-.029-.33-.009-.33.009-.326.029-.258-.796-.278-.79-.496-.012-.499-.005-.399.005-.404.012c-.103.261-.199.524-.287.787-.087.265-.165.53-.239.8l-.18-.029-.186-.009-.186.009-.201.029.249-.578.343-.809.404-.965.425-1.041.414-1.037.374-.954.144.027.148.011.147-.011.151-.028zm.1 3.338l-.338-.929-.35-.915c-.136.306-.263.61-.382.915l-.348.929h1.417zm-8.153-1.759l-.015-.895-.023-.647c.13.027.245.04.35.04.103 0 .217-.014.347-.04l1.673 1.845 1.688 1.843v-1.427l-.004-.746-.011-.675-.017-.533-.022-.306c.129.027.246.04.349.04.103 0 .218-.014.348-.04l-.05 1.039-.037.895-.021.813-.01.798-.005.848v.954l-.158-.029-.16-.009c-.1 0-.2.012-.304.038a85.803 85.803 0 00-3.383-3.764l-.014.906v.898l.002.789.013.551.014.367.017.253-.186-.029-.177-.009a1.81 1.81 0 00-.357.038l.023-.25.036-.483.033-.658.03-.773.024-.827.007-.815zm-3.583 1.342h-.07v.318l.005.602.01.537.021.505.025.501-.285-.029-.348-.009-.348.009-.289.029.03-.501.02-.505.01-.537.005-.602v-1.054l-.004-.605-.011-.537-.02-.502-.03-.502.289.029.348.011.477-.019c.178-.016.395-.021.663-.021l.502.018c.141.009.259.025.36.045.1.02.188.051.263.082.071.035.145.073.212.12.156.113.277.255.37.423.091.168.133.367.133.6 0 .376-.101.684-.307.923-.207.234-.506.403-.89.502.246.44.512.88.795 1.315l.854 1.319-.349-.029-.35-.009-.352.009-.352.029-1.387-2.465zm1.156-1.427c0-.227-.027-.409-.071-.541a.619.619 0 00-.215-.307.822.822 0 00-.37-.137 4.802 4.802 0 00-.548-.028 94.204 94.204 0 00-.022 2.106l.09.01.08.005c.342 0 .602-.094.78-.278.185-.187.276-.461.276-.83zm-6.331.69l-.004-.605-.01-.537-.015-.502-.026-.502.689.025.689.015.549-.004.472-.008.368-.011.232-.018-.023.144-.008.181.008.197.023.154-.492-.033-.52-.029-.451-.024-.286-.005a11.47 11.47 0 00-.037.841l-.003.844.908-.023.851-.038-.033.199-.008.147.01.127.03.191a23.151 23.151 0 00-1.76-.068l-.003.495-.004.497c0 .334.008.656.02.965.297 0 .592-.008.886-.022.295-.015.59-.042.891-.078l-.023.156-.008.193.008.193.023.141-.515-.024-.842-.014-.762.002-.464.011-.264.01-.152.014.026-.501.015-.504.01-.538.004-.602v-1.052zm-3.324-.882l-.005-.41-.018-.269-.287.005-.364.024-.394.029-.372.04.026-.172.013-.169-.013-.173-.026-.17.477.018.432.011.482.008.622.004.622-.004.482-.008.418-.011.445-.018-.025.17-.011.173.01.169.026.172-.348-.04-.383-.029-.36-.024-.284-.005c-.01.052-.018.144-.018.269v2.347l.003.602.014.537.02.505.025.501-.285-.029-.35-.009-.347.009-.29.029.029-.501.02-.505.01-.537.005-.602v-1.937zm-6.874.277l-.014-.895-.023-.647c.127.027.244.04.347.04.104 0 .22-.014.35-.04l1.671 1.845 1.69 1.843v-1.427l-.004-.746-.011-.675-.018-.533-.024-.306c.132.027.248.04.35.04.104 0 .22-.014.349-.04l-.051 1.039-.033.895-.026.813-.01.798-.005.848v.954l-.16-.029-.158-.009c-.1 0-.2.012-.3.038a79.318 79.318 0 00-1.643-1.883 96.717 96.717 0 00-1.743-1.881l-.014.906v.898l.004.789.011.551.016.367.016.253-.187-.029-.178-.009a1.8 1.8 0 00-.356.038l.024-.25.033-.483.036-.658.031-.773.024-.827.006-.815zm-2.619.605l-.005-.605-.01-.537-.02-.502-.029-.502.287.029.349.011.347-.011.288-.029-.027.502-.02.502-.012.537-.004.605v1.054l.004.602.011.538.021.504.027.501-.288-.029-.347-.009-.35.009-.286.029.029-.501.02-.504.01-.538.005-.602v-1.054zm155.052-1.1c-.166-.443-.48-.665-.938-.665-.239 0-.431.068-.581.208a.644.644 0 00-.227.489c0 .189.06.347.176.467.118.122.265.231.44.329.174.1.361.192.565.284.199.089.387.2.565.332.175.131.321.292.436.48.115.188.175.429.175.724 0 .257-.051.493-.149.709a1.548 1.548 0 01-.417.552c-.18.156-.395.278-.647.361a2.54 2.54 0 01-.839.128c-.281 0-.531-.033-.747-.099a1.583 1.583 0 01-.499-.234l.128-.494c.039-.15.068-.312.094-.489h.148a.979.979 0 00.327.588c.09.078.2.139.321.186.126.041.265.066.418.066.306 0 .535-.078.685-.234a.783.783 0 00.223-.558.675.675 0 00-.172-.48 1.64 1.64 0 00-.423-.329 7.684 7.684 0 00-.56-.28 2.808 2.808 0 01-.556-.329 1.683 1.683 0 01-.426-.477c-.112-.186-.169-.428-.169-.721 0-.27.05-.509.144-.714.094-.208.222-.38.381-.52.16-.137.347-.246.555-.318.211-.07.432-.109.662-.109.281 0 .524.037.73.101.213.068.392.16.541.28l-.119.344-.129.423h-.116v-.001z" fill="#407B7C"/><path d="M65.04 48.869c15.891-9.599 35.812-15.311 57.437-15.311 51.965 0 94.089 32.977 94.089 73.653 0 8.148-1.689 15.989-4.81 23.315h-12.348c4.5-7.838 6.99-16.449 6.99-25.486 0-36.366-42.689-66.605-88.63-66.605-19.082 0-38.135 3.315-52.698 10.723l-.03-.29zm-31.839 81.657l-.432-1.035.583 1.035h-.15z" fill="#407B7C"/><path d="M172.347 66.842c-1-.501-2.14-1.048-3.418-1.632-1.276-.583-2.764-1.111-4.459-1.585-1.696-.472-3.638-.858-5.832-1.164-2.197-.306-4.71-.459-7.544-.459-4.941 0-9.417.666-13.417 2.001-3.999 1.332-7.417 3.277-10.251 5.834-2.834 2.554-5.026 5.681-6.583 9.374-1.555 3.697-2.335 7.903-2.335 12.627 0 4.889.752 9.195 2.251 12.918 1.499 3.72 3.64 6.833 6.419 9.334 2.778 2.498 6.151 4.389 10.127 5.666 3.968 1.278 8.427 1.919 13.374 1.919 1.612 0 3.402-.129 5.375-.378a72.247 72.247 0 005.916-.999 138.23 138.23 0 005.585-1.292c1.751-.444 3.21-.89 4.374-1.332l-.001-24.359h-.011v-.002h-16.339v5.688h9.27v16.508c-1.446.888-3.433 1.552-5.961 1.997a42.417 42.417 0 01-7.376.668c-3.944 0-7.444-.612-10.5-1.835-3.055-1.224-5.652-2.96-7.794-5.207-2.137-2.252-3.762-5.001-4.874-8.251-1.113-3.249-1.667-6.933-1.667-11.043 0-4.61.622-8.598 1.875-11.96 1.25-3.36 2.97-6.138 5.166-8.334 2.194-2.194 4.779-3.82 7.751-4.873 2.972-1.056 6.181-1.586 9.625-1.586 2.112 0 4.1.236 5.961.71 1.861.472 3.557 1.081 5.083 1.831a22.459 22.459 0 014.168 2.628c1.25 1 2.292 1.998 3.124 2.999l.993-.002 1.925-6.41zM89.205 96.404a43.43 43.43 0 00-1.334-.637 12.062 12.062 0 00-1.739-.618 17.925 17.925 0 00-2.276-.455 21.643 21.643 0 00-2.941-.177c-1.929 0-3.676.258-5.236.78-1.56.519-2.894 1.278-4 2.276-1.105.995-1.96 2.216-2.568 3.657-.606 1.441-.91 3.083-.91 4.925 0 1.908.293 3.589.878 5.041.585 1.45 1.42 2.666 2.504 3.642 1.084.974 2.4 1.712 3.95 2.21 1.55.499 3.29.749 5.217.749.63 0 1.329-.051 2.098-.147a27.6 27.6 0 002.308-.391 52.86 52.86 0 002.179-.504 15.484 15.484 0 001.706-.519v-9.504h-.006v-.001H82.66v2.219h3.617v6.441c-.564.347-1.34.607-2.326.781-.987.172-1.944.259-2.877.259-1.54 0-2.905-.239-4.096-.714-1.193-.477-2.207-1.155-3.042-2.033-.833-.879-1.468-1.951-1.901-3.218-.434-1.268-.651-2.704-.651-4.309 0-1.798.243-3.353.73-4.666.49-1.311 1.16-2.394 2.017-3.25a7.999 7.999 0 013.024-1.903c1.161-.412 2.412-.618 3.756-.618a9.4 9.4 0 012.325.277c.726.184 1.389.421 1.983.714a8.709 8.709 0 011.626 1.026c.488.39.894.779 1.22 1.17l.387-.002.753-2.501zm-24.411 21.504V62.276c-30.173.072-41.361 26.19-41.361 45.984 0 7.783 1.613 15.269 4.595 22.267h11.79c-4.301-7.486-6.675-15.709-6.675-24.336 0-7.172 1.069-11.647 1.069-11.647h24.054v23.365h6.528v-.001zm-6.527-26.575H35.223s3.795-20.496 23.044-23.593v23.593zm57.022 4.017h-3.208v22.557h3.208V95.349z" fill="#898053"/></svg>